<svg xmlns="http://www.w3.org/2000/svg" viewBox="0 0 1200 900">
  <defs>
    <linearGradient id="lightBg" x1="0%" y1="0%" x2="100%" y2="100%">
      <stop offset="0%" style="stop-color:#ffffff"/>
      <stop offset="100%" style="stop-color:#f9fafb"/>
    </linearGradient>
    <linearGradient id="darkBg" x1="0%" y1="0%" x2="100%" y2="100%">
      <stop offset="0%" style="stop-color:#1f2937"/>
      <stop offset="100%" style="stop-color:#111827"/>
    </linearGradient>
  </defs>

  <!-- Title -->
  <text x="600" y="40" font-family="Poppins, Inter, system-ui, sans-serif" font-size="24" fill="#1f2937" text-anchor="middle" font-weight="700">PERSONAL BRAND VISUAL SKETCH</text>
  <text x="600" y="65" font-family="Inter, system-ui, sans-serif" font-size="14" fill="#6b7280" text-anchor="middle">Hoang Le (@hoangleitvn)</text>

  <!-- ==================== LIGHT THEME ==================== -->
  <g transform="translate(50, 100)">
    <!-- Light Theme Container -->
    <rect x="0" y="0" width="520" height="750" rx="16" fill="url(#lightBg)" stroke="#e5e7eb" stroke-width="2"/>

    <!-- Theme Label -->
    <rect x="0" y="0" width="520" height="40" rx="16" fill="#f1f5f9"/>
    <rect x="0" y="20" width="520" height="20" fill="#f1f5f9"/>
    <text x="260" y="26" font-family="Inter, system-ui, sans-serif" font-size="14" fill="#374151" text-anchor="middle" font-weight="600">LIGHT THEME</text>

    <!-- Accent Bar -->
    <rect x="0" y="40" width="520" height="5" fill="#00a86b"/>

    <!-- Color Palette Section -->
    <text x="20" y="75" font-family="Inter, system-ui, sans-serif" font-size="12" fill="#6b7280" font-weight="600">COLOR PALETTE</text>

    <!-- Primary Colors -->
    <g transform="translate(20, 90)">
      <rect x="0" y="0" width="60" height="40" rx="6" fill="#00a86b"/>
      <text x="30" y="55" font-family="Inter, system-ui, sans-serif" font-size="9" fill="#374151" text-anchor="middle">Primary</text>
      <text x="30" y="66" font-family="Inter, system-ui, sans-serif" font-size="8" fill="#6b7280" text-anchor="middle">#00a86b</text>

      <rect x="70" y="0" width="60" height="40" rx="6" fill="#374151"/>
      <text x="100" y="55" font-family="Inter, system-ui, sans-serif" font-size="9" fill="#374151" text-anchor="middle">Secondary</text>
      <text x="100" y="66" font-family="Inter, system-ui, sans-serif" font-size="8" fill="#6b7280" text-anchor="middle">#374151</text>

      <rect x="140" y="0" width="60" height="40" rx="6" fill="#f59e0b"/>
      <text x="170" y="55" font-family="Inter, system-ui, sans-serif" font-size="9" fill="#374151" text-anchor="middle">Accent</text>
      <text x="170" y="66" font-family="Inter, system-ui, sans-serif" font-size="8" fill="#6b7280" text-anchor="middle">#f59e0b</text>

      <rect x="210" y="0" width="60" height="40" rx="6" fill="#1f2937"/>
      <text x="240" y="55" font-family="Inter, system-ui, sans-serif" font-size="9" fill="#374151" text-anchor="middle">Dark</text>
      <text x="240" y="66" font-family="Inter, system-ui, sans-serif" font-size="8" fill="#6b7280" text-anchor="middle">#1f2937</text>

      <rect x="280" y="0" width="60" height="40" rx="6" fill="#f9fafb" stroke="#e5e7eb"/>
      <text x="310" y="55" font-family="Inter, system-ui, sans-serif" font-size="9" fill="#374151" text-anchor="middle">Light</text>
      <text x="310" y="66" font-family="Inter, system-ui, sans-serif" font-size="8" fill="#6b7280" text-anchor="middle">#f9fafb</text>

      <rect x="350" y="0" width="60" height="40" rx="6" fill="#6b7280"/>
      <text x="380" y="55" font-family="Inter, system-ui, sans-serif" font-size="9" fill="#374151" text-anchor="middle">Gray</text>
      <text x="380" y="66" font-family="Inter, system-ui, sans-serif" font-size="8" fill="#6b7280" text-anchor="middle">#6b7280</text>
    </g>

    <!-- Extended Colors -->
    <g transform="translate(20, 170)">
      <rect x="0" y="0" width="40" height="25" rx="4" fill="#d1fae5"/>
      <text x="20" y="35" font-family="Inter, system-ui, sans-serif" font-size="8" fill="#6b7280" text-anchor="middle">Mint</text>

      <rect x="50" y="0" width="40" height="25" rx="4" fill="#065f46"/>
      <text x="70" y="35" font-family="Inter, system-ui, sans-serif" font-size="8" fill="#6b7280" text-anchor="middle">Forest</text>

      <rect x="100" y="0" width="40" height="25" rx="4" fill="#fef3c7"/>
      <text x="120" y="35" font-family="Inter, system-ui, sans-serif" font-size="8" fill="#6b7280" text-anchor="middle">Cream</text>

      <rect x="150" y="0" width="40" height="25" rx="4" fill="#f1f5f9"/>
      <text x="170" y="35" font-family="Inter, system-ui, sans-serif" font-size="8" fill="#6b7280" text-anchor="middle">Slate</text>

      <rect x="200" y="0" width="40" height="25" rx="4" fill="#e5e7eb"/>
      <text x="220" y="35" font-family="Inter, system-ui, sans-serif" font-size="8" fill="#6b7280" text-anchor="middle">Border</text>
    </g>

    <!-- Typography Section -->
    <text x="20" y="230" font-family="Inter, system-ui, sans-serif" font-size="12" fill="#6b7280" font-weight="600">TYPOGRAPHY</text>

    <g transform="translate(20, 245)">
      <text x="0" y="0" font-family="Poppins, Inter, system-ui, sans-serif" font-size="28" fill="#1f2937" font-weight="700">Display Heading</text>
      <text x="0" y="30" font-family="Inter, system-ui, sans-serif" font-size="20" fill="#1f2937" font-weight="600">Section Heading</text>
      <text x="0" y="55" font-family="Inter, system-ui, sans-serif" font-size="16" fill="#374151" font-weight="400">Body text in regular weight for readability.</text>
      <text x="0" y="75" font-family="Inter, system-ui, sans-serif" font-size="14" fill="#6b7280" font-weight="400">Secondary text and captions in gray.</text>
      <text x="0" y="95" font-family="JetBrains Mono, monospace" font-size="12" fill="#00a86b" font-weight="400">code_example.tsx</text>
    </g>

    <!-- Components Section -->
    <text x="20" y="370" font-family="Inter, system-ui, sans-serif" font-size="12" fill="#6b7280" font-weight="600">COMPONENTS</text>

    <!-- Buttons -->
    <g transform="translate(20, 385)">
      <rect x="0" y="0" width="100" height="36" rx="6" fill="#00a86b"/>
      <text x="50" y="23" font-family="Inter, system-ui, sans-serif" font-size="13" fill="#ffffff" text-anchor="middle" font-weight="500">Primary</text>

      <rect x="110" y="0" width="100" height="36" rx="6" fill="none" stroke="#374151" stroke-width="2"/>
      <text x="160" y="23" font-family="Inter, system-ui, sans-serif" font-size="13" fill="#374151" text-anchor="middle" font-weight="500">Secondary</text>

      <rect x="220" y="0" width="100" height="36" rx="6" fill="#d1fae5"/>
      <text x="270" y="23" font-family="Inter, system-ui, sans-serif" font-size="13" fill="#00a86b" text-anchor="middle" font-weight="500">Ghost</text>
    </g>

    <!-- Tags -->
    <g transform="translate(20, 435)">
      <rect x="0" y="0" width="70" height="24" rx="12" fill="#d1fae5"/>
      <text x="35" y="16" font-family="Inter, system-ui, sans-serif" font-size="11" fill="#065f46" text-anchor="middle" font-weight="500">Primary</text>

      <rect x="80" y="0" width="70" height="24" rx="12" fill="#f1f5f9"/>
      <text x="115" y="16" font-family="Inter, system-ui, sans-serif" font-size="11" fill="#374151" text-anchor="middle" font-weight="500">Secondary</text>

      <rect x="160" y="0" width="70" height="24" rx="12" fill="#fef3c7"/>
      <text x="195" y="16" font-family="Inter, system-ui, sans-serif" font-size="11" fill="#92400e" text-anchor="middle" font-weight="500">Accent</text>
    </g>

    <!-- Card Example -->
    <g transform="translate(20, 480)">
      <rect x="0" y="0" width="240" height="120" rx="12" fill="#ffffff" stroke="#e5e7eb"/>
      <rect x="0" y="0" width="240" height="5" rx="2" fill="#00a86b"/>
      <text x="16" y="35" font-family="Inter, system-ui, sans-serif" font-size="14" fill="#1f2937" font-weight="600">Card Title</text>
      <text x="16" y="55" font-family="Inter, system-ui, sans-serif" font-size="12" fill="#6b7280">Supporting text goes here</text>
      <text x="16" y="75" font-family="Inter, system-ui, sans-serif" font-size="12" fill="#6b7280">with multiple lines.</text>
      <rect x="16" y="90" width="70" height="20" rx="4" fill="#00a86b"/>
      <text x="51" y="104" font-family="Inter, system-ui, sans-serif" font-size="10" fill="#ffffff" text-anchor="middle" font-weight="500">Action</text>
    </g>

    <!-- Profile Example -->
    <g transform="translate(280, 480)">
      <circle cx="40" cy="40" r="35" fill="#e5e7eb"/>
      <circle cx="40" cy="40" r="35" fill="none" stroke="#00a86b" stroke-width="2"/>
      <text x="40" y="48" font-family="Poppins, Inter, system-ui, sans-serif" font-size="24" fill="#374151" text-anchor="middle" font-weight="600">HL</text>
      <text x="40" y="95" font-family="Poppins, Inter, system-ui, sans-serif" font-size="14" fill="#1f2937" text-anchor="middle" font-weight="700">Hoang Le</text>
      <text x="40" y="112" font-family="Inter, system-ui, sans-serif" font-size="11" fill="#6b7280" text-anchor="middle">@hoangleitvn</text>
    </g>

    <!-- Sample Layout -->
    <text x="20" y="630" font-family="Inter, system-ui, sans-serif" font-size="12" fill="#6b7280" font-weight="600">SAMPLE LAYOUT</text>

    <g transform="translate(20, 645)">
      <rect x="0" y="0" width="480" height="80" rx="8" fill="#f9fafb" stroke="#e5e7eb"/>
      <rect x="0" y="0" width="480" height="4" fill="#00a86b"/>
      <text x="20" y="30" font-family="Poppins, Inter, system-ui, sans-serif" font-size="16" fill="#1f2937" font-weight="700">YOU'RE <tspan fill="#00a86b">NOT BAD</tspan> AT THIS.</text>
      <text x="20" y="52" font-family="Inter, system-ui, sans-serif" font-size="12" fill="#6b7280">You're just doing it wrong.</text>
      <rect x="20" y="62" width="60" height="3" fill="#00a86b" opacity="0.3"/>
    </g>
  </g>

  <!-- ==================== DARK THEME ==================== -->
  <g transform="translate(630, 100)">
    <!-- Dark Theme Container -->
    <rect x="0" y="0" width="520" height="750" rx="16" fill="url(#darkBg)" stroke="#374151" stroke-width="2"/>

    <!-- Theme Label -->
    <rect x="0" y="0" width="520" height="40" rx="16" fill="#374151"/>
    <rect x="0" y="20" width="520" height="20" fill="#374151"/>
    <text x="260" y="26" font-family="Inter, system-ui, sans-serif" font-size="14" fill="#f9fafb" text-anchor="middle" font-weight="600">DARK THEME</text>

    <!-- Accent Bar -->
    <rect x="0" y="40" width="520" height="5" fill="#00a86b"/>

    <!-- Color Palette Section -->
    <text x="20" y="75" font-family="Inter, system-ui, sans-serif" font-size="12" fill="#9ca3af" font-weight="600">COLOR PALETTE</text>

    <!-- Primary Colors -->
    <g transform="translate(20, 90)">
      <rect x="0" y="0" width="60" height="40" rx="6" fill="#00a86b"/>
      <text x="30" y="55" font-family="Inter, system-ui, sans-serif" font-size="9" fill="#d1d5db" text-anchor="middle">Primary</text>
      <text x="30" y="66" font-family="Inter, system-ui, sans-serif" font-size="8" fill="#9ca3af" text-anchor="middle">#00a86b</text>

      <rect x="70" y="0" width="60" height="40" rx="6" fill="#f9fafb"/>
      <text x="100" y="55" font-family="Inter, system-ui, sans-serif" font-size="9" fill="#d1d5db" text-anchor="middle">Text</text>
      <text x="100" y="66" font-family="Inter, system-ui, sans-serif" font-size="8" fill="#9ca3af" text-anchor="middle">#f9fafb</text>

      <rect x="140" y="0" width="60" height="40" rx="6" fill="#f59e0b"/>
      <text x="170" y="55" font-family="Inter, system-ui, sans-serif" font-size="9" fill="#d1d5db" text-anchor="middle">Accent</text>
      <text x="170" y="66" font-family="Inter, system-ui, sans-serif" font-size="8" fill="#9ca3af" text-anchor="middle">#f59e0b</text>

      <rect x="210" y="0" width="60" height="40" rx="6" fill="#374151"/>
      <text x="240" y="55" font-family="Inter, system-ui, sans-serif" font-size="9" fill="#d1d5db" text-anchor="middle">Surface</text>
      <text x="240" y="66" font-family="Inter, system-ui, sans-serif" font-size="8" fill="#9ca3af" text-anchor="middle">#374151</text>

      <rect x="280" y="0" width="60" height="40" rx="6" fill="#1f2937" stroke="#374151"/>
      <text x="310" y="55" font-family="Inter, system-ui, sans-serif" font-size="9" fill="#d1d5db" text-anchor="middle">Background</text>
      <text x="310" y="66" font-family="Inter, system-ui, sans-serif" font-size="8" fill="#9ca3af" text-anchor="middle">#1f2937</text>

      <rect x="350" y="0" width="60" height="40" rx="6" fill="#9ca3af"/>
      <text x="380" y="55" font-family="Inter, system-ui, sans-serif" font-size="9" fill="#d1d5db" text-anchor="middle">Muted</text>
      <text x="380" y="66" font-family="Inter, system-ui, sans-serif" font-size="8" fill="#9ca3af" text-anchor="middle">#9ca3af</text>
    </g>

    <!-- Extended Colors -->
    <g transform="translate(20, 170)">
      <rect x="0" y="0" width="40" height="25" rx="4" fill="#065f46"/>
      <text x="20" y="35" font-family="Inter, system-ui, sans-serif" font-size="8" fill="#9ca3af" text-anchor="middle">Forest</text>

      <rect x="50" y="0" width="40" height="25" rx="4" fill="#d1fae5" opacity="0.2"/>
      <text x="70" y="35" font-family="Inter, system-ui, sans-serif" font-size="8" fill="#9ca3af" text-anchor="middle">Mint 20%</text>

      <rect x="100" y="0" width="40" height="25" rx="4" fill="#92400e"/>
      <text x="120" y="35" font-family="Inter, system-ui, sans-serif" font-size="8" fill="#9ca3af" text-anchor="middle">Amber</text>

      <rect x="150" y="0" width="40" height="25" rx="4" fill="#4b5563"/>
      <text x="170" y="35" font-family="Inter, system-ui, sans-serif" font-size="8" fill="#9ca3af" text-anchor="middle">Border</text>

      <rect x="200" y="0" width="40" height="25" rx="4" fill="#111827"/>
      <text x="220" y="35" font-family="Inter, system-ui, sans-serif" font-size="8" fill="#9ca3af" text-anchor="middle">Deep</text>
    </g>

    <!-- Typography Section -->
    <text x="20" y="230" font-family="Inter, system-ui, sans-serif" font-size="12" fill="#9ca3af" font-weight="600">TYPOGRAPHY</text>

    <g transform="translate(20, 245)">
      <text x="0" y="0" font-family="Poppins, Inter, system-ui, sans-serif" font-size="28" fill="#f9fafb" font-weight="700">Display Heading</text>
      <text x="0" y="30" font-family="Inter, system-ui, sans-serif" font-size="20" fill="#f9fafb" font-weight="600">Section Heading</text>
      <text x="0" y="55" font-family="Inter, system-ui, sans-serif" font-size="16" fill="#d1d5db" font-weight="400">Body text in regular weight for readability.</text>
      <text x="0" y="75" font-family="Inter, system-ui, sans-serif" font-size="14" fill="#9ca3af" font-weight="400">Secondary text and captions in gray.</text>
      <text x="0" y="95" font-family="JetBrains Mono, monospace" font-size="12" fill="#00a86b" font-weight="400">code_example.tsx</text>
    </g>

    <!-- Components Section -->
    <text x="20" y="370" font-family="Inter, system-ui, sans-serif" font-size="12" fill="#9ca3af" font-weight="600">COMPONENTS</text>

    <!-- Buttons -->
    <g transform="translate(20, 385)">
      <rect x="0" y="0" width="100" height="36" rx="6" fill="#00a86b"/>
      <text x="50" y="23" font-family="Inter, system-ui, sans-serif" font-size="13" fill="#ffffff" text-anchor="middle" font-weight="500">Primary</text>

      <rect x="110" y="0" width="100" height="36" rx="6" fill="none" stroke="#f9fafb" stroke-width="2"/>
      <text x="160" y="23" font-family="Inter, system-ui, sans-serif" font-size="13" fill="#f9fafb" text-anchor="middle" font-weight="500">Secondary</text>

      <rect x="220" y="0" width="100" height="36" rx="6" fill="#065f46"/>
      <text x="270" y="23" font-family="Inter, system-ui, sans-serif" font-size="13" fill="#00a86b" text-anchor="middle" font-weight="500">Ghost</text>
    </g>

    <!-- Tags -->
    <g transform="translate(20, 435)">
      <rect x="0" y="0" width="70" height="24" rx="12" fill="#065f46"/>
      <text x="35" y="16" font-family="Inter, system-ui, sans-serif" font-size="11" fill="#00a86b" text-anchor="middle" font-weight="500">Primary</text>

      <rect x="80" y="0" width="70" height="24" rx="12" fill="#374151"/>
      <text x="115" y="16" font-family="Inter, system-ui, sans-serif" font-size="11" fill="#d1d5db" text-anchor="middle" font-weight="500">Secondary</text>

      <rect x="160" y="0" width="70" height="24" rx="12" fill="#92400e"/>
      <text x="195" y="16" font-family="Inter, system-ui, sans-serif" font-size="11" fill="#fef3c7" text-anchor="middle" font-weight="500">Accent</text>
    </g>

    <!-- Card Example -->
    <g transform="translate(20, 480)">
      <rect x="0" y="0" width="240" height="120" rx="12" fill="#374151"/>
      <rect x="0" y="0" width="240" height="5" rx="2" fill="#00a86b"/>
      <text x="16" y="35" font-family="Inter, system-ui, sans-serif" font-size="14" fill="#f9fafb" font-weight="600">Card Title</text>
      <text x="16" y="55" font-family="Inter, system-ui, sans-serif" font-size="12" fill="#9ca3af">Supporting text goes here</text>
      <text x="16" y="75" font-family="Inter, system-ui, sans-serif" font-size="12" fill="#9ca3af">with multiple lines.</text>
      <rect x="16" y="90" width="70" height="20" rx="4" fill="#00a86b"/>
      <text x="51" y="104" font-family="Inter, system-ui, sans-serif" font-size="10" fill="#ffffff" text-anchor="middle" font-weight="500">Action</text>
    </g>

    <!-- Profile Example -->
    <g transform="translate(280, 480)">
      <circle cx="40" cy="40" r="35" fill="#374151"/>
      <circle cx="40" cy="40" r="35" fill="none" stroke="#00a86b" stroke-width="2"/>
      <text x="40" y="48" font-family="Poppins, Inter, system-ui, sans-serif" font-size="24" fill="#d1d5db" text-anchor="middle" font-weight="600">HL</text>
      <text x="40" y="95" font-family="Poppins, Inter, system-ui, sans-serif" font-size="14" fill="#f9fafb" text-anchor="middle" font-weight="700">Hoang Le</text>
      <text x="40" y="112" font-family="Inter, system-ui, sans-serif" font-size="11" fill="#9ca3af" text-anchor="middle">@hoangleitvn</text>
    </g>

    <!-- Sample Layout -->
    <text x="20" y="630" font-family="Inter, system-ui, sans-serif" font-size="12" fill="#9ca3af" font-weight="600">SAMPLE LAYOUT</text>

    <g transform="translate(20, 645)">
      <rect x="0" y="0" width="480" height="80" rx="8" fill="#374151"/>
      <rect x="0" y="0" width="480" height="4" fill="#00a86b"/>
      <text x="20" y="30" font-family="Poppins, Inter, system-ui, sans-serif" font-size="16" fill="#f9fafb" font-weight="700">YOU'RE <tspan fill="#00a86b">NOT BAD</tspan> AT THIS.</text>
      <text x="20" y="52" font-family="Inter, system-ui, sans-serif" font-size="12" fill="#9ca3af">You're just doing it wrong.</text>
      <rect x="20" y="62" width="60" height="3" fill="#00a86b" opacity="0.5"/>
    </g>
  </g>

  <!-- Footer -->
  <text x="600" y="880" font-family="Inter, system-ui, sans-serif" font-size="11" fill="#9ca3af" text-anchor="middle">Brand: personal | Colors: Jade Green (#00a86b), Charcoal (#1f2937), Amber (#f59e0b)</text>

</svg>