<svg width="177" height="51" viewBox="0 0 177 51" fill="none" xmlns="http://www.w3.org/2000/svg">
<path d="M8.9181 14.0612L27.3381 12.4879C29.5375 12.3001 31.7215 12.9936 33.4095 14.416C35.0976 15.8384 36.1515 17.8731 36.3393 20.0725L37.966 39.1177C38.1538 41.3172 37.4603 43.5011 36.0379 45.1892C34.6155 46.8772 32.5808 47.9311 30.3813 48.1189L11.3362 49.7456C9.13674 49.9334 6.95278 49.2399 5.26472 47.8175C3.57667 46.3951 2.5228 44.3604 2.33495 42.161L0.761694 23.741C0.559732 21.3764 1.30538 19.0284 2.83461 17.2135C4.36384 15.3987 6.55138 14.2656 8.91599 14.0637L8.9181 14.0612Z" fill="#EA322A"/>
<path d="M7.88149 25.7276L5.58301 25.924L5.77932 28.2224L8.0778 28.0261L7.88149 25.7276Z" fill="white"/>
<path d="M29.2317 27.3766L26.1909 27.6363C25.375 27.706 24.6202 28.0967 24.0923 28.7227C23.5645 29.3487 23.3068 30.1586 23.3759 30.9745L23.7021 34.7946L22.5529 34.8928L22.3554 32.5805C22.304 31.9786 22.1345 31.3928 21.8567 30.8564C21.5789 30.32 21.1982 29.8436 20.7362 29.4544C20.2743 29.0651 19.7402 28.7707 19.1645 28.5878C18.5887 28.405 17.9827 28.3374 17.3808 28.3888L15.0685 28.5863C14.9904 28.5929 14.9122 28.5996 14.8387 28.6059L14.7251 28.6318C14.5764 28.667 14.4318 28.7173 14.2934 28.7821C14.1581 28.8443 14.0296 28.9205 13.91 29.0094L13.8208 29.0772C13.7646 29.1236 13.7086 29.1724 13.6551 29.2233L13.6168 29.2636C13.5408 29.3416 13.4706 29.425 13.4066 29.5131L13.3757 29.5574C13.3328 29.6179 13.2933 29.6808 13.2575 29.7458L13.2056 29.8428C13.1393 29.9769 13.0861 30.1172 13.0468 30.2615C13.0073 30.409 12.9822 30.5601 12.9719 30.7125C12.975 30.7492 12.9784 30.7883 12.9656 30.8287C12.9721 30.9046 12.9673 30.9837 12.9738 31.0596L13.3664 35.6565L11.0518 35.8542C10.4465 35.9059 9.84543 35.7151 9.38084 35.3236C8.91626 34.9321 8.6262 34.3721 8.5745 33.7668L8.18227 29.1744L5.88379 29.3707L6.27641 33.9677C6.38055 35.1869 6.96474 36.3148 7.90047 37.1032C8.8362 37.8917 10.0468 38.2761 11.266 38.172L15.863 37.7794L15.274 30.884L17.5725 30.6876C18.1821 30.6356 18.7874 30.8278 19.2553 31.222C19.7231 31.6163 20.0152 32.1802 20.0673 32.7898L20.2636 35.0883C20.3157 35.6979 20.6078 36.2618 21.0756 36.6561C21.5435 37.0503 22.1488 37.2425 22.7584 37.1905L26.2061 36.896L25.6829 30.7705C25.6743 30.6694 25.6857 30.5676 25.7164 30.4709C25.7471 30.3741 25.7966 30.2844 25.862 30.2068C25.9274 30.1292 26.0074 30.0652 26.0975 30.0186C26.1876 29.9719 26.2861 29.9434 26.3872 29.9348L29.4281 29.6751C29.6323 29.6576 29.835 29.722 29.9918 29.8541C30.1485 29.9862 30.2464 30.1751 30.2638 30.3793L30.5249 33.4363C30.5423 33.6405 30.478 33.8433 30.3459 34C30.2138 34.1567 30.0249 34.2546 29.8207 34.272L28.2922 34.4026L28.4885 36.701L30.017 36.5705C30.8326 36.5008 31.5872 36.11 32.1147 35.484C32.6421 34.858 32.8994 34.0481 32.8297 33.2325L32.5698 30.1893C32.5001 29.3736 32.1093 28.6191 31.4833 28.0916C30.8573 27.5641 30.0474 27.3069 29.2317 27.3766Z" fill="white"/>
<path d="M45.6104 20.1906L50.2073 19.7979L51.6797 37.0365L47.0827 37.4291L45.6104 20.1906Z" fill="#2E3840"/>
<path d="M68.6831 26.0339L69.4929 35.5152L64.896 35.9078L64.0862 26.4266C63.8408 23.5535 62.0334 23.129 60.6313 23.2488C59.3028 23.3622 57.563 24.5967 57.8145 27.541L58.5752 36.4476L53.9782 36.8403L52.5059 19.6017L57.1028 19.2091L57.2746 21.2202C57.9824 20.1827 59.114 19.0373 61.4125 18.841C65.0395 18.5312 68.223 20.6463 68.6831 26.0339Z" fill="#2E3840"/>
<path d="M86.4996 24.512L87.3093 33.9932L82.7124 34.3858L81.9026 24.9046C81.6572 22.0315 79.8475 21.6073 78.4454 21.727C77.1169 21.8405 75.3794 23.0747 75.6309 26.0191L76.3916 34.9257L71.7946 35.3183L70.3223 18.0797L74.9192 17.6871L75.091 19.6983C75.7965 18.661 76.9304 17.5153 79.2289 17.319C82.8559 17.0092 86.0394 19.1243 86.4996 24.512Z" fill="#2E3840"/>
<path d="M106.684 23.6561C107.092 28.4323 103.54 32.6068 98.5114 33.0363C93.2249 33.4878 89.2789 29.9538 88.8709 25.1775C88.463 20.4013 91.5457 16.2669 97.0391 15.7977C102.031 15.3713 106.276 18.8799 106.684 23.6561ZM102.087 24.0487C102.046 23.4801 101.892 22.9254 101.633 22.4175C101.374 21.9095 101.016 21.4586 100.58 21.0912C100.144 20.7239 99.6386 20.4475 99.0941 20.2785C98.5496 20.1095 97.9768 20.0512 97.4095 20.1072C96.8407 20.148 96.2859 20.3023 95.7778 20.5611C95.2697 20.8199 94.8186 21.1779 94.4512 21.614C94.0838 22.05 93.8074 22.5553 93.6386 23.0999C93.4697 23.6445 93.4116 24.2175 93.4679 24.7849C93.5087 25.3535 93.6629 25.9081 93.9216 26.416C94.1802 26.924 94.538 27.375 94.9738 27.7424C95.4096 28.1098 95.9146 28.3862 96.459 28.5553C97.0033 28.7243 97.5761 28.7826 98.1433 28.7267C98.712 28.6856 99.2666 28.531 99.7746 28.2721C100.282 28.0132 100.733 27.6552 101.101 27.2192C101.468 26.7832 101.745 26.2781 101.914 25.7336C102.083 25.1891 102.141 24.6163 102.085 24.0489L102.087 24.0487Z" fill="#2E3840"/>
<path d="M134.192 20.4384L135.002 29.9196L130.405 30.3122L129.595 20.831C129.35 17.9579 127.692 17.5207 126.427 17.6287C125.241 17.73 123.62 18.6649 123.896 21.8966L124.656 30.8032L120.059 31.1958L119.25 21.7146C119.004 18.8415 117.484 18.3925 116.227 18.4999C115.041 18.6012 113.279 19.5482 113.555 22.7798L114.315 31.6864L109.718 32.079L108.246 14.8405L112.843 14.4478L113.015 16.459C114.113 14.9182 115.535 14.2179 117.44 14.0552C119.414 13.8866 120.955 14.5514 122.128 16.0071C123.246 14.2909 124.802 13.4264 126.776 13.2578C130.691 12.9235 133.732 15.0507 134.192 20.4384Z" fill="#2E3840"/>
<path d="M135.829 12.485L140.426 12.0924L141.898 29.3309L137.301 29.7236L135.829 12.485Z" fill="#2E3840"/>
<path d="M143.628 29.183L149.706 15.6406L143.098 16.205L142.73 11.8954L157.095 10.6684L151.017 24.2108L157.625 23.6464L157.993 27.9561L143.628 29.183Z" fill="#2E3840"/>
<path d="M171.702 20.7077L174.431 23.8757C173.644 24.8113 172.677 25.5786 171.587 26.1315C170.497 26.6845 169.306 27.0119 168.087 27.094C162.591 27.5634 158.81 23.9504 158.407 19.2386C157.999 14.4623 161.047 10.3309 166.614 9.85541C168.913 9.6591 173.083 10.6411 174.875 15.5168L165.411 22.4397C166.159 22.7655 166.982 22.8824 167.792 22.7781C168.548 22.7073 169.282 22.488 169.953 22.1327C170.624 21.7774 171.218 21.2932 171.702 20.7077ZM163.004 18.8459C163.029 19.0624 163.072 19.2764 163.133 19.4855L169.478 15.0076C169.162 14.6967 168.78 14.4599 168.361 14.3144C167.942 14.1688 167.495 14.1181 167.054 14.1659C164.505 14.3767 162.802 16.4762 163.004 18.8459Z" fill="#2E3840"/>
</svg>
