<svg width="1620" height="1790" viewBox="0 0 1620 1790" fill="none" xmlns="http://www.w3.org/2000/svg">
<rect x="5" y="5" width="1610" height="1780" stroke="#053A93" stroke-width="10" stroke-dasharray="20 20"/>
<rect x="10" y="10" width="1600" height="1770" fill="#053A93"/>
<rect x="599" y="688.215" width="412" height="412" rx="103" fill="white"/>
<path fill-rule="evenodd" clip-rule="evenodd" d="M840.008 821.61C840.008 819.519 841.703 817.823 843.795 817.823C845.886 817.823 847.581 819.519 847.581 821.61V821.744V821.785V888.227C847.581 895.895 853.798 902.112 861.466 902.112C869.134 902.112 875.351 895.895 875.351 888.227V821.785V821.744V821.61C875.351 819.519 877.046 817.823 879.138 817.823C881.229 817.823 882.925 819.519 882.925 821.61V887.48C882.925 899.331 873.317 908.939 861.466 908.939C849.615 908.939 840.008 899.331 840.008 887.48V821.61Z" fill="#EE7B59"/>
<path fill-rule="evenodd" clip-rule="evenodd" d="M817.875 943.948V946.078C817.875 949.142 816.109 951.773 813.589 952.908C813.599 952.981 813.605 953.056 813.605 953.132V958.206C813.605 959.026 812.964 959.689 812.172 959.689H810.604V964.802L817.472 976.145H817.495C818.03 977.035 818 978.175 817.412 979.025L804.898 997.253C804.649 997.62 804.332 997.893 803.978 998.073V978.003C804.656 977.605 805.116 976.848 805.116 975.981C805.116 974.685 804.106 973.639 802.855 973.639C801.603 973.639 800.593 974.685 800.593 975.981C800.593 976.848 801.053 977.597 801.731 978.003V998.073C801.377 997.886 801.06 997.612 800.812 997.253L788.297 979.025C787.709 978.167 787.679 977.035 788.215 976.145L795.09 964.795V959.681H793.522C792.73 959.681 792.089 959.018 792.089 958.198V953.132C792.089 953.054 792.095 952.977 792.106 952.902C789.906 951.905 788.284 949.768 787.914 947.198C776.242 955.534 761.952 960.439 746.516 960.439C707.134 960.439 675.208 928.513 675.208 889.131C675.208 849.749 707.134 817.823 746.516 817.823C761.917 817.823 776.177 822.705 787.834 831.007V829.089C787.834 823.961 791.79 819.804 796.67 819.804H809.04C813.919 819.804 817.875 823.961 817.875 829.089V888.468H817.926V888.471C817.926 912.174 837.14 931.388 860.842 931.388C884.544 931.388 903.759 912.174 903.759 888.471C903.759 887.767 903.742 887.067 903.708 886.372V830.243C922.477 843.088 934.792 864.671 934.792 889.131C934.792 928.513 902.866 960.439 863.484 960.439C846.138 960.439 830.238 954.245 817.875 943.948ZM743.875 931.387C767.578 931.387 786.792 912.173 786.792 888.47C786.792 864.768 767.578 845.554 743.875 845.554C720.173 845.554 700.959 864.768 700.959 888.47C700.959 912.173 720.173 931.387 743.875 931.387Z" fill="#0961F5"/>
<path opacity="0.5" d="M10 559H1610" stroke="white" stroke-width="2" stroke-linecap="round"/>
<path opacity="0.5" d="M10 1227H1610" stroke="white" stroke-width="2" stroke-linecap="round"/>
<path opacity="0.5" d="M469 12L469 1780" stroke="white" stroke-width="2" stroke-linecap="round"/>
<path opacity="0.5" d="M1143 10L1143 1778" stroke="white" stroke-width="2" stroke-linecap="round"/>
<rect opacity="0.05" x="469" y="559" width="674" height="130" fill="#ECECEC"/>
<rect opacity="0.05" x="469" y="1097" width="674" height="130" fill="#ECECEC"/>
<rect opacity="0.05" x="1013" y="561" width="130" height="666" fill="#ECECEC"/>
<rect opacity="0.05" x="469" y="559" width="130" height="668" fill="#ECECEC"/>
<path d="M1021 1227L1006 1218.34L1006 1235.66L1021 1227ZM591 1227L606 1235.66L606 1218.34L591 1227ZM1009.06 1225.5L1001.09 1225.5L1001.09 1228.5L1009.06 1228.5L1009.06 1225.5ZM993.13 1225.5L985.167 1225.5L985.167 1228.5L993.13 1228.5L993.13 1225.5ZM977.204 1225.5L969.241 1225.5L969.241 1228.5L977.204 1228.5L977.204 1225.5ZM961.278 1225.5L953.315 1225.5L953.315 1228.5L961.278 1228.5L961.278 1225.5ZM945.352 1225.5L937.389 1225.5L937.389 1228.5L945.352 1228.5L945.352 1225.5ZM929.426 1225.5L921.463 1225.5L921.463 1228.5L929.426 1228.5L929.426 1225.5ZM913.5 1225.5L905.537 1225.5L905.537 1228.5L913.5 1228.5L913.5 1225.5ZM897.574 1225.5L889.611 1225.5L889.611 1228.5L897.574 1228.5L897.574 1225.5ZM881.648 1225.5L873.685 1225.5L873.685 1228.5L881.648 1228.5L881.648 1225.5ZM865.722 1225.5L857.759 1225.5L857.759 1228.5L865.722 1228.5L865.722 1225.5ZM849.796 1225.5L841.833 1225.5L841.833 1228.5L849.796 1228.5L849.796 1225.5ZM833.87 1225.5L825.907 1225.5L825.907 1228.5L833.87 1228.5L833.87 1225.5ZM817.944 1225.5L809.981 1225.5L809.981 1228.5L817.944 1228.5L817.944 1225.5ZM802.018 1225.5L794.055 1225.5L794.055 1228.5L802.018 1228.5L802.018 1225.5ZM786.093 1225.5L778.13 1225.5L778.13 1228.5L786.093 1228.5L786.093 1225.5ZM770.167 1225.5L762.204 1225.5L762.204 1228.5L770.167 1228.5L770.167 1225.5ZM754.241 1225.5L746.278 1225.5L746.278 1228.5L754.241 1228.5L754.241 1225.5ZM738.315 1225.5L730.352 1225.5L730.352 1228.5L738.315 1228.5L738.315 1225.5ZM722.389 1225.5L714.426 1225.5L714.426 1228.5L722.389 1228.5L722.389 1225.5ZM706.463 1225.5L698.5 1225.5L698.5 1228.5L706.463 1228.5L706.463 1225.5ZM690.537 1225.5L682.574 1225.5L682.574 1228.5L690.537 1228.5L690.537 1225.5ZM674.611 1225.5L666.648 1225.5L666.648 1228.5L674.611 1228.5L674.611 1225.5ZM658.685 1225.5L650.722 1225.5L650.722 1228.5L658.685 1228.5L658.685 1225.5ZM642.759 1225.5L634.796 1225.5L634.796 1228.5L642.759 1228.5L642.759 1225.5ZM626.833 1225.5L618.87 1225.5L618.87 1228.5L626.833 1228.5L626.833 1225.5ZM610.908 1225.5L602.945 1225.5L602.945 1228.5L610.908 1228.5L610.908 1225.5ZM1021 1227L1006 1218.34L1006 1235.66L1021 1227ZM591 1227L606 1235.66L606 1218.34L591 1227ZM1009.06 1225.5L1001.09 1225.5L1001.09 1228.5L1009.06 1228.5L1009.06 1225.5ZM993.13 1225.5L985.167 1225.5L985.167 1228.5L993.13 1228.5L993.13 1225.5ZM977.204 1225.5L969.241 1225.5L969.241 1228.5L977.204 1228.5L977.204 1225.5ZM961.278 1225.5L953.315 1225.5L953.315 1228.5L961.278 1228.5L961.278 1225.5ZM945.352 1225.5L937.389 1225.5L937.389 1228.5L945.352 1228.5L945.352 1225.5ZM929.426 1225.5L921.463 1225.5L921.463 1228.5L929.426 1228.5L929.426 1225.5ZM913.5 1225.5L905.537 1225.5L905.537 1228.5L913.5 1228.5L913.5 1225.5ZM897.574 1225.5L889.611 1225.5L889.611 1228.5L897.574 1228.5L897.574 1225.5ZM881.648 1225.5L873.685 1225.5L873.685 1228.5L881.648 1228.5L881.648 1225.5ZM865.722 1225.5L857.759 1225.5L857.759 1228.5L865.722 1228.5L865.722 1225.5ZM849.796 1225.5L841.833 1225.5L841.833 1228.5L849.796 1228.5L849.796 1225.5ZM833.87 1225.5L825.907 1225.5L825.907 1228.5L833.87 1228.5L833.87 1225.5ZM817.944 1225.5L809.981 1225.5L809.981 1228.5L817.944 1228.5L817.944 1225.5ZM802.018 1225.5L794.055 1225.5L794.055 1228.5L802.018 1228.5L802.018 1225.5ZM786.093 1225.5L778.13 1225.5L778.13 1228.5L786.093 1228.5L786.093 1225.5ZM770.167 1225.5L762.204 1225.5L762.204 1228.5L770.167 1228.5L770.167 1225.5ZM754.241 1225.5L746.278 1225.5L746.278 1228.5L754.241 1228.5L754.241 1225.5ZM738.315 1225.5L730.352 1225.5L730.352 1228.5L738.315 1228.5L738.315 1225.5ZM722.389 1225.5L714.426 1225.5L714.426 1228.5L722.389 1228.5L722.389 1225.5ZM706.463 1225.5L698.5 1225.5L698.5 1228.5L706.463 1228.5L706.463 1225.5ZM690.537 1225.5L682.574 1225.5L682.574 1228.5L690.537 1228.5L690.537 1225.5ZM674.611 1225.5L666.648 1225.5L666.648 1228.5L674.611 1228.5L674.611 1225.5ZM658.685 1225.5L650.722 1225.5L650.722 1228.5L658.685 1228.5L658.685 1225.5ZM642.759 1225.5L634.796 1225.5L634.796 1228.5L642.759 1228.5L642.759 1225.5ZM626.833 1225.5L618.87 1225.5L618.87 1228.5L626.833 1228.5L626.833 1225.5ZM610.908 1225.5L602.945 1225.5L602.945 1228.5L610.908 1228.5L610.908 1225.5Z" fill="#ECECEC"/>
<path d="M1143 695L1134.34 710L1151.66 710L1143 695ZM1143 1095L1151.66 1080L1134.34 1080L1143 1095ZM1141.5 707L1141.5 715L1144.5 715L1144.5 707L1141.5 707ZM1141.5 723L1141.5 731L1144.5 731L1144.5 723L1141.5 723ZM1141.5 739L1141.5 747L1144.5 747L1144.5 739L1141.5 739ZM1141.5 755L1141.5 763L1144.5 763L1144.5 755L1141.5 755ZM1141.5 771L1141.5 779L1144.5 779L1144.5 771L1141.5 771ZM1141.5 787L1141.5 795L1144.5 795L1144.5 787L1141.5 787ZM1141.5 803L1141.5 811L1144.5 811L1144.5 803L1141.5 803ZM1141.5 819L1141.5 827L1144.5 827L1144.5 819L1141.5 819ZM1141.5 835L1141.5 843L1144.5 843L1144.5 835L1141.5 835ZM1141.5 851L1141.5 859L1144.5 859L1144.5 851L1141.5 851ZM1141.5 867L1141.5 875L1144.5 875L1144.5 867L1141.5 867ZM1141.5 883L1141.5 891L1144.5 891L1144.5 883L1141.5 883ZM1141.5 899L1141.5 907L1144.5 907L1144.5 899L1141.5 899ZM1141.5 915L1141.5 923L1144.5 923L1144.5 915L1141.5 915ZM1141.5 931L1141.5 939L1144.5 939L1144.5 931L1141.5 931ZM1141.5 947L1141.5 955L1144.5 955L1144.5 947L1141.5 947ZM1141.5 963L1141.5 971L1144.5 971L1144.5 963L1141.5 963ZM1141.5 979L1141.5 987L1144.5 987L1144.5 979L1141.5 979ZM1141.5 995L1141.5 1003L1144.5 1003L1144.5 995L1141.5 995ZM1141.5 1011L1141.5 1019L1144.5 1019L1144.5 1011L1141.5 1011ZM1141.5 1027L1141.5 1035L1144.5 1035L1144.5 1027L1141.5 1027ZM1141.5 1043L1141.5 1051L1144.5 1051L1144.5 1043L1141.5 1043ZM1141.5 1059L1141.5 1067L1144.5 1067L1144.5 1059L1141.5 1059ZM1141.5 1075L1141.5 1083L1144.5 1083L1144.5 1075L1141.5 1075ZM1143 695L1134.34 710L1151.66 710L1143 695ZM1143 1095L1151.66 1080L1134.34 1080L1143 1095ZM1141.5 707L1141.5 715L1144.5 715L1144.5 707L1141.5 707ZM1141.5 723L1141.5 731L1144.5 731L1144.5 723L1141.5 723ZM1141.5 739L1141.5 747L1144.5 747L1144.5 739L1141.5 739ZM1141.5 755L1141.5 763L1144.5 763L1144.5 755L1141.5 755ZM1141.5 771L1141.5 779L1144.5 779L1144.5 771L1141.5 771ZM1141.5 787L1141.5 795L1144.5 795L1144.5 787L1141.5 787ZM1141.5 803L1141.5 811L1144.5 811L1144.5 803L1141.5 803ZM1141.5 819L1141.5 827L1144.5 827L1144.5 819L1141.5 819ZM1141.5 835L1141.5 843L1144.5 843L1144.5 835L1141.5 835ZM1141.5 851L1141.5 859L1144.5 859L1144.5 851L1141.5 851ZM1141.5 867L1141.5 875L1144.5 875L1144.5 867L1141.5 867ZM1141.5 883L1141.5 891L1144.5 891L1144.5 883L1141.5 883ZM1141.5 899L1141.5 907L1144.5 907L1144.5 899L1141.5 899ZM1141.5 915L1141.5 923L1144.5 923L1144.5 915L1141.5 915ZM1141.5 931L1141.5 939L1144.5 939L1144.5 931L1141.5 931ZM1141.5 947L1141.5 955L1144.5 955L1144.5 947L1141.5 947ZM1141.5 963L1141.5 971L1144.5 971L1144.5 963L1141.5 963ZM1141.5 979L1141.5 987L1144.5 987L1144.5 979L1141.5 979ZM1141.5 995L1141.5 1003L1144.5 1003L1144.5 995L1141.5 995ZM1141.5 1011L1141.5 1019L1144.5 1019L1144.5 1011L1141.5 1011ZM1141.5 1027L1141.5 1035L1144.5 1035L1144.5 1027L1141.5 1027ZM1141.5 1043L1141.5 1051L1144.5 1051L1144.5 1043L1141.5 1043ZM1141.5 1059L1141.5 1067L1144.5 1067L1144.5 1059L1141.5 1059ZM1141.5 1075L1141.5 1083L1144.5 1083L1144.5 1075L1141.5 1075Z" fill="#ECECEC"/>
<path d="M774.443 1279V1277.32L779.339 1271.75C780.075 1270.87 780.659 1270.18 781.091 1269.69C781.523 1269.19 781.851 1268.79 782.075 1268.49C782.299 1268.18 782.443 1267.92 782.507 1267.7C782.571 1267.47 782.603 1267.18 782.603 1266.83C782.603 1265.94 782.339 1265.26 781.811 1264.82C781.283 1264.35 780.643 1264.12 779.891 1264.12C779.507 1264.12 779.147 1264.2 778.811 1264.36C778.491 1264.5 778.203 1264.7 777.947 1264.96C777.707 1265.22 777.515 1265.5 777.371 1265.82C777.227 1266.14 777.155 1266.48 777.155 1266.83H774.707C774.707 1266.14 774.843 1265.5 775.115 1264.89C775.387 1264.26 775.755 1263.72 776.219 1263.26C776.699 1262.79 777.251 1262.42 777.875 1262.15C778.499 1261.88 779.171 1261.74 779.891 1261.74C780.611 1261.74 781.283 1261.88 781.907 1262.15C782.531 1262.42 783.075 1262.79 783.539 1263.26C784.003 1263.72 784.371 1264.26 784.643 1264.89C784.915 1265.5 785.051 1266.14 785.051 1266.83C785.051 1267.34 784.979 1267.85 784.835 1268.34C784.707 1268.82 784.491 1269.25 784.187 1269.62L778.163 1276.67H785.411V1279H774.443ZM789.558 1264.24H787.278V1261.98H792.078V1279H789.558V1264.24ZM799.586 1276.84C800.066 1276.84 800.514 1276.75 800.93 1276.58C801.362 1276.38 801.738 1276.13 802.058 1275.81C802.378 1275.49 802.626 1275.12 802.802 1274.7C802.994 1274.27 803.09 1273.82 803.09 1273.34C803.09 1272.73 802.954 1272.17 802.682 1271.66C802.426 1271.13 802.066 1270.7 801.602 1270.38C801.41 1270.24 801.17 1270.12 800.882 1270.02C800.61 1269.91 800.306 1269.84 799.97 1269.81C799.65 1269.78 799.314 1269.78 798.962 1269.81C798.626 1269.84 798.298 1269.93 797.978 1270.07C797.626 1270.23 797.322 1270.44 797.066 1270.7L795.626 1269.74L796.514 1261.98H803.954V1264.24H798.602L798.218 1267.89C799.066 1267.62 799.922 1267.54 800.786 1267.65C801.65 1267.76 802.378 1268.03 802.97 1268.46C803.754 1269.01 804.362 1269.71 804.794 1270.58C805.226 1271.42 805.442 1272.34 805.442 1273.34C805.442 1274.15 805.29 1274.92 804.986 1275.64C804.682 1276.34 804.266 1276.97 803.738 1277.51C803.21 1278.04 802.586 1278.46 801.866 1278.78C801.162 1279.09 800.402 1279.24 799.586 1279.24C798.658 1279.24 797.794 1279.03 796.994 1278.62C796.21 1278.2 795.546 1277.66 795.002 1276.98C794.682 1276.62 794.418 1276.18 794.21 1275.66L796.274 1274.49C796.386 1274.86 796.57 1275.19 796.826 1275.5C797.146 1275.91 797.546 1276.24 798.026 1276.48C798.506 1276.72 799.026 1276.84 799.586 1276.84ZM808.012 1283.75V1267.5H809.86L810.34 1268.7C810.804 1268.24 811.332 1267.88 811.924 1267.62C812.532 1267.37 813.212 1267.24 813.964 1267.24C814.764 1267.24 815.5 1267.4 816.172 1267.72C816.86 1268.02 817.452 1268.45 817.948 1268.99C818.444 1269.54 818.828 1270.18 819.1 1270.91C819.388 1271.65 819.532 1272.43 819.532 1273.26C819.532 1274.1 819.388 1274.88 819.1 1275.62C818.828 1276.35 818.444 1276.99 817.948 1277.54C817.452 1278.08 816.86 1278.51 816.172 1278.83C815.5 1279.14 814.764 1279.29 813.964 1279.29C813.18 1279.29 812.492 1279.16 811.9 1278.9C811.308 1278.63 810.788 1278.25 810.34 1277.75V1283.75H808.012ZM813.772 1269.35C813.308 1269.35 812.868 1269.43 812.452 1269.59C812.036 1269.74 811.668 1269.98 811.348 1270.31C811.044 1270.63 810.804 1271.04 810.628 1271.54C810.452 1272.02 810.364 1272.59 810.364 1273.26C810.364 1273.98 810.452 1274.6 810.628 1275.11C810.804 1275.61 811.044 1276.02 811.348 1276.34C811.668 1276.64 812.036 1276.86 812.452 1277.01C812.868 1277.15 813.308 1277.22 813.772 1277.22C814.236 1277.22 814.676 1277.12 815.092 1276.91C815.508 1276.7 815.868 1276.42 816.172 1276.07C816.476 1275.7 816.716 1275.28 816.892 1274.8C817.068 1274.32 817.156 1273.81 817.156 1273.26C817.156 1272.72 817.068 1272.21 816.892 1271.73C816.716 1271.25 816.476 1270.83 816.172 1270.48C815.868 1270.13 815.508 1269.86 815.092 1269.66C814.676 1269.46 814.236 1269.35 813.772 1269.35ZM832.263 1279H829.431L826.479 1274.97L823.503 1279H820.671L825.063 1273.05L820.983 1267.5H823.815L826.479 1271.1L829.119 1267.5H831.951L827.895 1273.05L832.263 1279Z" fill="#ECECEC"/>
<path d="M1179 866.443L1180.68 866.443L1186.25 871.339C1187.13 872.075 1187.82 872.659 1188.31 873.091C1188.81 873.523 1189.21 873.851 1189.51 874.075C1189.82 874.299 1190.08 874.443 1190.3 874.507C1190.53 874.571 1190.82 874.603 1191.17 874.603C1192.06 874.603 1192.74 874.339 1193.18 873.811C1193.65 873.283 1193.88 872.643 1193.88 871.891C1193.88 871.507 1193.8 871.147 1193.64 870.811C1193.5 870.491 1193.3 870.203 1193.04 869.947C1192.78 869.707 1192.5 869.515 1192.18 869.371C1191.86 869.227 1191.52 869.155 1191.17 869.155L1191.17 866.707C1191.86 866.707 1192.5 866.843 1193.11 867.115C1193.74 867.387 1194.28 867.755 1194.74 868.219C1195.21 868.699 1195.58 869.251 1195.85 869.875C1196.12 870.499 1196.26 871.171 1196.26 871.891C1196.26 872.611 1196.12 873.283 1195.85 873.907C1195.58 874.531 1195.21 875.075 1194.74 875.539C1194.28 876.003 1193.74 876.371 1193.11 876.643C1192.5 876.915 1191.86 877.051 1191.17 877.051C1190.66 877.051 1190.15 876.979 1189.66 876.835C1189.18 876.707 1188.75 876.491 1188.38 876.187L1181.33 870.163L1181.33 877.411L1179 877.411L1179 866.443ZM1193.76 881.558L1193.76 879.278L1196.02 879.278L1196.02 884.078L1179 884.078L1179 881.558L1193.76 881.558ZM1181.16 891.586C1181.16 892.066 1181.25 892.514 1181.42 892.93C1181.62 893.362 1181.87 893.738 1182.19 894.058C1182.51 894.378 1182.88 894.626 1183.3 894.802C1183.73 894.994 1184.18 895.09 1184.66 895.09C1185.27 895.09 1185.83 894.954 1186.34 894.682C1186.87 894.426 1187.3 894.066 1187.62 893.602C1187.76 893.41 1187.88 893.17 1187.98 892.882C1188.09 892.61 1188.16 892.306 1188.19 891.97C1188.22 891.65 1188.22 891.314 1188.19 890.962C1188.16 890.626 1188.07 890.298 1187.93 889.978C1187.77 889.626 1187.56 889.322 1187.3 889.066L1188.26 887.626L1196.02 888.514L1196.02 895.954L1193.76 895.954L1193.76 890.602L1190.11 890.218C1190.38 891.066 1190.46 891.922 1190.35 892.786C1190.24 893.65 1189.97 894.378 1189.54 894.97C1188.99 895.754 1188.29 896.362 1187.42 896.794C1186.58 897.226 1185.66 897.442 1184.66 897.442C1183.85 897.442 1183.08 897.29 1182.36 896.986C1181.66 896.682 1181.03 896.266 1180.49 895.738C1179.96 895.21 1179.54 894.586 1179.22 893.866C1178.91 893.162 1178.76 892.402 1178.76 891.586C1178.76 890.658 1178.97 889.794 1179.38 888.994C1179.8 888.21 1180.34 887.546 1181.02 887.002C1181.38 886.682 1181.82 886.418 1182.34 886.21L1183.51 888.274C1183.14 888.386 1182.81 888.57 1182.5 888.826C1182.09 889.146 1181.76 889.546 1181.52 890.026C1181.28 890.506 1181.16 891.026 1181.16 891.586ZM1174.25 900.012L1190.5 900.012L1190.5 901.86L1189.3 902.34C1189.76 902.804 1190.12 903.332 1190.38 903.924C1190.63 904.532 1190.76 905.212 1190.76 905.964C1190.76 906.764 1190.6 907.5 1190.28 908.172C1189.98 908.86 1189.55 909.452 1189.01 909.948C1188.46 910.444 1187.82 910.828 1187.09 911.1C1186.35 911.388 1185.57 911.532 1184.74 911.532C1183.9 911.532 1183.12 911.388 1182.38 911.1C1181.65 910.828 1181.01 910.444 1180.46 909.948C1179.92 909.452 1179.49 908.86 1179.17 908.172C1178.86 907.5 1178.71 906.764 1178.71 905.964C1178.71 905.18 1178.84 904.492 1179.1 903.9C1179.37 903.308 1179.75 902.788 1180.25 902.34L1174.25 902.34L1174.25 900.012ZM1188.65 905.772C1188.65 905.308 1188.57 904.868 1188.41 904.452C1188.26 904.036 1188.02 903.668 1187.69 903.348C1187.37 903.044 1186.96 902.804 1186.46 902.628C1185.98 902.452 1185.41 902.364 1184.74 902.364C1184.02 902.364 1183.4 902.452 1182.89 902.628C1182.39 902.804 1181.98 903.044 1181.66 903.348C1181.36 903.668 1181.14 904.036 1180.99 904.452C1180.85 904.868 1180.78 905.308 1180.78 905.772C1180.78 906.236 1180.88 906.676 1181.09 907.092C1181.3 907.508 1181.58 907.868 1181.93 908.172C1182.3 908.476 1182.72 908.716 1183.2 908.892C1183.68 909.068 1184.19 909.156 1184.74 909.156C1185.28 909.156 1185.79 909.068 1186.27 908.892C1186.75 908.716 1187.17 908.476 1187.52 908.172C1187.87 907.868 1188.14 907.508 1188.34 907.092C1188.54 906.676 1188.65 906.236 1188.65 905.772ZM1179 924.263L1179 921.431L1183.03 918.479L1179 915.503L1179 912.671L1184.95 917.063L1190.5 912.983L1190.5 915.815L1186.9 918.479L1190.5 921.119L1190.5 923.951L1184.95 919.895L1179 924.263Z" fill="#ECECEC"/>
<path d="M469 559L484 567.66L484 550.34L469 559ZM599 559L584 550.34V567.66L599 559ZM481.188 560.5H489.312V557.5H481.188V560.5ZM497.438 560.5L505.562 560.5V557.5L497.438 557.5V560.5ZM513.688 560.5L521.812 560.5V557.5L513.688 557.5V560.5ZM529.938 560.5H538.062V557.5H529.938V560.5ZM546.188 560.5H554.312V557.5H546.188V560.5ZM562.438 560.5L570.562 560.5V557.5L562.438 557.5V560.5ZM578.688 560.5L586.812 560.5V557.5L578.688 557.5V560.5ZM469 559L484 567.66L484 550.34L469 559ZM599 559L584 550.34V567.66L599 559ZM481.188 560.5H489.312V557.5H481.188V560.5ZM497.438 560.5L505.562 560.5V557.5L497.438 557.5V560.5ZM513.688 560.5L521.812 560.5V557.5L513.688 557.5V560.5ZM529.938 560.5H538.062V557.5H529.938V560.5ZM546.188 560.5H554.312V557.5H546.188V560.5ZM562.438 560.5L570.562 560.5V557.5L562.438 557.5V560.5ZM578.688 560.5L586.812 560.5V557.5L578.688 557.5V560.5Z" fill="#ECECEC"/>
<path d="M511.911 523.24C511.095 523.24 510.327 523.088 509.607 522.784C508.903 522.464 508.287 522.04 507.759 521.512C507.231 520.968 506.815 520.344 506.511 519.64C506.207 518.92 506.055 518.152 506.055 517.336C506.055 516.776 506.135 516.24 506.295 515.728C506.471 515.216 506.687 514.704 506.943 514.192C507.007 514.08 507.119 513.872 507.279 513.568C507.439 513.264 507.623 512.912 507.831 512.512C508.055 512.096 508.295 511.648 508.551 511.168C508.807 510.688 509.071 510.208 509.343 509.728C509.967 508.608 510.647 507.36 511.383 505.984H514.023L510.879 511.72C511.711 511.512 512.511 511.48 513.279 511.624C514.063 511.768 514.743 512.048 515.319 512.464C516.087 513.008 516.687 513.712 517.119 514.576C517.567 515.424 517.791 516.344 517.791 517.336C517.791 518.152 517.631 518.92 517.311 519.64C517.007 520.344 516.591 520.968 516.063 521.512C515.535 522.04 514.911 522.464 514.191 522.784C513.487 523.088 512.727 523.24 511.911 523.24ZM509.247 514.936C509.039 515.352 508.847 515.784 508.671 516.232C508.495 516.68 508.407 517.048 508.407 517.336C508.407 517.816 508.495 518.272 508.671 518.704C508.863 519.136 509.119 519.512 509.439 519.832C509.759 520.152 510.127 520.408 510.543 520.6C510.975 520.792 511.431 520.888 511.911 520.888C512.391 520.888 512.847 520.792 513.279 520.6C513.711 520.408 514.079 520.152 514.383 519.832C514.703 519.512 514.951 519.136 515.127 518.704C515.319 518.272 515.415 517.816 515.415 517.336C515.415 516.728 515.287 516.168 515.031 515.656C514.775 515.128 514.415 514.704 513.951 514.384C513.663 514.176 513.319 514.016 512.919 513.904C512.535 513.776 512.127 513.72 511.695 513.736C511.279 513.752 510.863 513.84 510.447 514C510.031 514.16 509.655 514.424 509.319 514.792L509.247 514.936ZM524.52 520.84C525 520.84 525.448 520.752 525.864 520.576C526.296 520.384 526.672 520.128 526.992 519.808C527.312 519.488 527.56 519.12 527.736 518.704C527.928 518.272 528.024 517.816 528.024 517.336C528.024 516.728 527.888 516.168 527.616 515.656C527.36 515.128 527 514.704 526.536 514.384C526.344 514.24 526.104 514.12 525.816 514.024C525.544 513.912 525.24 513.84 524.904 513.808C524.584 513.776 524.248 513.776 523.896 513.808C523.56 513.84 523.232 513.928 522.912 514.072C522.56 514.232 522.256 514.44 522 514.696L520.56 513.736L521.448 505.984L528.888 505.984V508.24H523.536L523.152 511.888C524 511.616 524.856 511.536 525.72 511.648C526.584 511.76 527.312 512.032 527.904 512.464C528.688 513.008 529.296 513.712 529.728 514.576C530.16 515.424 530.376 516.344 530.376 517.336C530.376 518.152 530.224 518.92 529.92 519.64C529.616 520.344 529.2 520.968 528.672 521.512C528.144 522.04 527.52 522.464 526.8 522.784C526.096 523.088 525.336 523.24 524.52 523.24C523.592 523.24 522.728 523.032 521.928 522.616C521.144 522.2 520.48 521.656 519.936 520.984C519.616 520.616 519.352 520.176 519.144 519.664L521.208 518.488C521.32 518.856 521.504 519.192 521.76 519.496C522.08 519.912 522.48 520.24 522.96 520.48C523.44 520.72 523.96 520.84 524.52 520.84ZM539.81 505.984C540.482 505.984 541.114 506.112 541.706 506.368C542.298 506.624 542.81 506.968 543.242 507.4C543.69 507.832 544.042 508.344 544.298 508.936C544.554 509.512 544.682 510.136 544.682 510.808C544.682 511.48 544.554 512.112 544.298 512.704C544.042 513.296 543.69 513.808 543.242 514.24C542.81 514.672 542.298 515.016 541.706 515.272C541.114 515.512 540.482 515.632 539.81 515.632L535.394 515.656V523H532.898V505.984H539.81ZM539.81 513.304C540.146 513.304 540.458 513.24 540.746 513.112C541.05 512.968 541.314 512.784 541.538 512.56C541.762 512.336 541.938 512.072 542.066 511.768C542.194 511.448 542.258 511.112 542.258 510.76C542.258 510.408 542.194 510.08 542.066 509.776C541.938 509.472 541.762 509.208 541.538 508.984C541.314 508.744 541.05 508.56 540.746 508.432C540.458 508.288 540.146 508.216 539.81 508.216H535.394V513.304L539.81 513.304ZM555.242 513.856L561.314 523H558.314L553.754 516.136L549.17 523H546.17L552.242 513.856L547.01 505.984H550.01L553.754 511.6L557.474 505.984H560.474L555.242 513.856Z" fill="#ECECEC"/>
</svg>
