<svg width="1600" height="2000" viewBox="0 0 1600 2000" fill="none" xmlns="http://www.w3.org/2000/svg">
  <!-- BTL Branding - Mark & Text Construction -->
  <!-- Version: 5.0 | Updated: 2026-01-13 -->
  <!-- Fonts: IBM Plex Sans (brand), Public Sans (body), JetBrains Mono (dimensions) -->

  <defs>
    <style>
      @import url('https://fonts.googleapis.com/css2?family=IBM+Plex+Sans:wght@500;600;700&amp;family=Public+Sans:wght@400;500&amp;family=JetBrains+Mono:wght@400;500&amp;display=swap');

      .bg { fill: #f9fafb; }
      .grid-major { stroke: #e5e7eb; stroke-width: 1; }
      .grid-minor { stroke: #f3f4f6; stroke-width: 0.5; }

      .mark-tip { fill: #10b981; }
      .mark-body { fill: #00a86b; }
      .mark-outline { stroke: #065f46; stroke-width: 1; fill: none; }
      .waterline-primary { stroke: #1f2937; stroke-width: 2; stroke-linecap: butt; }
      .waterline-glow { stroke: #00a86b; stroke-width: 1; stroke-opacity: 0.3; }

      .dim-line { stroke: #ec4899; stroke-width: 1; }
      .dim-text { font-family: 'JetBrains Mono', monospace; fill: #ec4899; font-size: 12px; font-weight: 500; }

      .label { font-family: 'IBM Plex Sans', sans-serif; fill: #1f2937; font-size: 24px; font-weight: 700; }
      .sublabel { font-family: 'Public Sans', sans-serif; fill: #6b7280; font-size: 14px; font-weight: 400; }
      .section-label { font-family: 'JetBrains Mono', monospace; fill: #9ca3af; font-size: 11px; font-weight: 500; letter-spacing: 0.1em; }

      .brand-text { font-family: 'IBM Plex Sans', sans-serif; font-weight: 700; letter-spacing: 0.02em; }
      .jade { fill: #00a86b; }
      .charcoal { fill: #1f2937; }
    </style>

    <!-- Gradients for full-color mark -->
    <linearGradient id="tip-gradient" x1="0" y1="0" x2="0" y2="1">
      <stop offset="0%" stop-color="#10b981"/>
      <stop offset="100%" stop-color="#00a86b"/>
    </linearGradient>
    <linearGradient id="body-gradient" x1="0" y1="0" x2="0" y2="1">
      <stop offset="0%" stop-color="#00a86b"/>
      <stop offset="50%" stop-color="#065f46"/>
      <stop offset="100%" stop-color="#022c22"/>
    </linearGradient>
  </defs>

  <!-- Canvas -->
  <rect width="1600" height="2000" class="bg"/>

  <!-- Header -->
  <rect x="0" y="0" width="1600" height="5" fill="#00a86b"/>
  <text x="60" y="60" class="label">BTL Logo Construction</text>
  <text x="60" y="85" class="sublabel">Mark geometry, waterline specification, and text lockups</text>
  <text x="60" y="110" class="section-label">VERSION 5.0 · 2026-01-13</text>

  <line x1="60" y1="130" x2="1540" y2="130" stroke="#e5e7eb" stroke-width="1"/>

  <!-- ========================================== -->
  <!-- SECTION 1: MARK CONSTRUCTION -->
  <!-- ========================================== -->
  <text x="60" y="175" class="section-label">01. MARK CONSTRUCTION</text>

  <g transform="translate(400, 450)">
    <!-- Scale: 6x (48px mark = 288px display) -->

    <!-- Grid Background -->
    <rect x="-180" y="-180" width="360" height="360" fill="white" stroke="#e5e7eb" stroke-width="1"/>

    <!-- Grid lines every 24px (4px at 1x) -->
    <g stroke="#f3f4f6" stroke-width="0.5">
      <line x1="-180" y1="-96" x2="180" y2="-96"/>
      <line x1="-180" y1="-48" x2="180" y2="-48"/>
      <line x1="-180" y1="0" x2="180" y2="0"/>
      <line x1="-180" y1="48" x2="180" y2="48"/>
      <line x1="-180" y1="96" x2="180" y2="96"/>
      <line x1="-180" y1="144" x2="180" y2="144"/>
      <line x1="-96" y1="-180" x2="-96" y2="180"/>
      <line x1="-48" y1="-180" x2="-48" y2="180"/>
      <line x1="0" y1="-180" x2="0" y2="180"/>
      <line x1="48" y1="-180" x2="48" y2="180"/>
      <line x1="96" y1="-180" x2="96" y2="180"/>
    </g>

    <!-- Center axis -->
    <line x1="0" y1="-190" x2="0" y2="190" stroke="#d1d5db" stroke-width="1" stroke-dasharray="6 4"/>

    <!-- MARK at 6x scale -->
    <!-- Original coords from logo.md: tip(24,6), base(16,14)/(32,14), body corners (8,18)/(40,18), bottom(24,44) -->
    <!-- Centered: tip(0,-18), base(-8,-10)/(8,-10), body(-16,-6)/(16,-6), bottom(0,20) -->
    <!-- At 6x: tip(0,-108), base(-48,-60)/(48,-60), body(-96,-36)/(96,-36), bottom(0,120) -->

    <!-- Tip triangle (20%) -->
    <path d="M0 -108 L48 -60 H-48 Z" fill="url(#tip-gradient)"/>

    <!-- Waterline at y=16 in original = y=-8 centered = y=-48 at 6x -->
    <!-- Primary dashed line -->
    <line x1="-96" y1="-48" x2="96" y2="-48" stroke="#1f2937" stroke-width="12" stroke-dasharray="24 18"/>
    <!-- Glow line (1px below = 6px at 6x) -->
    <line x1="-96" y1="-42" x2="96" y2="-42" stroke="#00a86b" stroke-width="6" stroke-opacity="0.3"/>

    <!-- Body triangle (80%) -->
    <path d="M-96 -36 L0 120 L96 -36 H-96 Z" fill="url(#body-gradient)"/>

    <!-- Dimension labels -->
    <g class="dim-text">
      <!-- Tip height: 8px -->
      <line x1="-120" y1="-108" x2="-120" y2="-60" class="dim-line"/>
      <line x1="-125" y1="-108" x2="-115" y2="-108" class="dim-line"/>
      <line x1="-125" y1="-60" x2="-115" y2="-60" class="dim-line"/>
      <text x="-135" y="-80" text-anchor="end">8px</text>
      <text x="-135" y="-68" text-anchor="end" font-size="9" fill="#9ca3af">(20%)</text>

      <!-- Body height: 26px -->
      <line x1="-120" y1="-36" x2="-120" y2="120" class="dim-line"/>
      <line x1="-125" y1="-36" x2="-115" y2="-36" class="dim-line"/>
      <line x1="-125" y1="120" x2="-115" y2="120" class="dim-line"/>
      <text x="-135" y="45" text-anchor="end">26px</text>
      <text x="-135" y="57" text-anchor="end" font-size="9" fill="#9ca3af">(80%)</text>

      <!-- Total width: 32px -->
      <line x1="-96" y1="145" x2="96" y2="145" class="dim-line"/>
      <line x1="-96" y1="140" x2="-96" y2="150" class="dim-line"/>
      <line x1="96" y1="140" x2="96" y2="150" class="dim-line"/>
      <text x="0" y="165" text-anchor="middle">32px (1x)</text>
    </g>
  </g>

  
  <!-- ========================================== -->
  <!-- SECTION 2: HORIZONTAL LOCKUP -->
  <!-- ========================================== -->
  <text x="60" y="680" class="section-label">02. HORIZONTAL LOCKUP</text>

  <g transform="translate(60, 720)">
    <rect x="0" y="0" width="700" height="180" rx="8" fill="white" stroke="#e5e7eb" stroke-width="1"/>

    <!-- Grid background -->
    <g stroke="#f3f4f6" stroke-width="0.5">
      <line x1="0" y1="90" x2="700" y2="90"/>
      <line x1="140" y1="0" x2="140" y2="180"/>
    </g>

    <!-- Mark at 1.5x (48px * 1.5 = 72px wide area) -->
    <g transform="translate(70, 90)">
      <!-- Tip -->
      <path d="M0 -27 L12 -15 H-12 Z" fill="url(#tip-gradient)"/>
      <!-- Waterline -->
      <line x1="-24" y1="-12" x2="24" y2="-12" stroke="#1f2937" stroke-width="3" stroke-dasharray="6 4.5"/>
      <line x1="-24" y1="-10.5" x2="24" y2="-10.5" stroke="#00a86b" stroke-width="1.5" stroke-opacity="0.3"/>
      <!-- Body -->
      <path d="M-24 -9 L0 30 L24 -9 H-24 Z" fill="url(#body-gradient)"/>
    </g>

    <!-- Text: 36px IBM Plex Sans 700 -->
    <text x="160" y="100" class="brand-text" font-size="36">
      <tspan class="jade">Builds</tspan><tspan class="charcoal"> That Last</tspan>
    </text>

    <!-- Dimensions -->
    <g class="dim-text" font-size="10">
      <!-- Icon to text gap: 16px -->
      <line x1="95" y1="130" x2="155" y2="130" class="dim-line"/>
      <text x="125" y="145" text-anchor="middle">16px gap</text>

      <!-- Text size -->
      <text x="350" y="145" text-anchor="middle">36px IBM Plex Sans 700</text>
      <text x="350" y="158" text-anchor="middle" fill="#6b7280">letter-spacing: +0.02em</text>
    </g>
  </g>

  <!-- Specs box -->
  <g transform="translate(800, 720)">
    <rect x="0" y="0" width="340" height="180" rx="8" fill="white" stroke="#e5e7eb" stroke-width="1"/>
    <rect x="0" y="0" width="340" height="4" rx="2" fill="#00a86b"/>

    <text x="20" y="35" class="section-label">HORIZONTAL SPECS</text>

    <g transform="translate(20, 55)" class="sublabel" font-size="12">
      <text x="0" y="0" font-weight="500" fill="#1f2937">Icon size:</text>
      <text x="100" y="0">48×57px (1x × 1.19x)</text>

      <text x="0" y="22" font-weight="500" fill="#1f2937">Icon-text gap:</text>
      <text x="100" y="22">16px (0.33x)</text>

      <text x="0" y="44" font-weight="500" fill="#1f2937">Text size:</text>
      <text x="100" y="44">36px</text>

      <text x="0" y="66" font-weight="500" fill="#1f2937">Alignment:</text>
      <text x="100" y="66">Vertical center</text>

      <text x="0" y="88" font-weight="500" fill="#1f2937">Min width:</text>
      <text x="100" y="88">200px</text>
    </g>
  </g>

  <!-- ========================================== -->
  <!-- SECTION 3: STACKED LOCKUP -->
  <!-- ========================================== -->
  <text x="60" y="950" class="section-label">03. STACKED LOCKUP</text>

  <g transform="translate(60, 990)">
    <rect x="0" y="0" width="300" height="280" rx="8" fill="white" stroke="#e5e7eb" stroke-width="1"/>

    <!-- Grid -->
    <line x1="150" y1="0" x2="150" y2="280" stroke="#f3f4f6" stroke-width="0.5"/>

    <!-- Mark centered at 1.5x -->
    <g transform="translate(150, 70)">
      <path d="M0 -27 L12 -15 H-12 Z" fill="url(#tip-gradient)"/>
      <line x1="-24" y1="-12" x2="24" y2="-12" stroke="#1f2937" stroke-width="3" stroke-dasharray="6 4.5"/>
      <line x1="-24" y1="-10.5" x2="24" y2="-10.5" stroke="#00a86b" stroke-width="1.5" stroke-opacity="0.3"/>
      <path d="M-24 -9 L0 30 L24 -9 H-24 Z" fill="url(#body-gradient)"/>
    </g>

    <!-- Stacked text: 28px -->
    <text x="150" y="150" class="brand-text jade" font-size="28" text-anchor="middle">Builds</text>
    <text x="150" y="185" class="brand-text charcoal" font-size="28" text-anchor="middle">That Last</text>

    <!-- Dimensions -->
    <g class="dim-text" font-size="10">
      <text x="150" y="220" text-anchor="middle">28px IBM Plex Sans 700</text>
      <text x="150" y="235" text-anchor="middle" fill="#6b7280">line-height: 35px (1.25em)</text>
      <text x="150" y="260" text-anchor="middle">Center-aligned</text>
    </g>
  </g>

   <!-- Waterline Detail Box -->                                                                 
  <g transform="translate(900, 280)">                                                           
  <rect x="0" y="0" width="400" height="200" rx="8" fill="white" stroke="#e5e7eb"               
  stroke-width="1"/>                                                                            
  <rect x="0" y="0" width="400" height="4" rx="2" fill="#00a86b"/>                              
                                                                                                
  <text x="20" y="35" class="section-label">WATERLINE SPECIFICATION</text>                      
                                                                                                
  <!-- Waterline demo at 8x -->                                                                 
  <g transform="translate(50, 80)">                                                             
  <!-- Primary line -->                                                                         
  <line x1="0" y1="0" x2="300" y2="0" stroke="#1f2937" stroke-width="16"                        
  stroke-dasharray="32 24"/>                                                                    
  <!-- Glow line -->                                                                            
  <line x1="0" y1="10" x2="300" y2="10" stroke="#00a86b" stroke-width="8"                       
  stroke-opacity="0.3"/>                                                                        
                                                                                                
  <!-- Labels -->                                                                               
  <text x="320" y="5" class="dim-text">Primary: 2px, dash 4-3</text>                            
  <text x="320" y="18" class="dim-text" fill="#00a86b">Glow: 1px solid, 30%</text>              
  </g>                                                                                          
                                                                                                
  <g transform="translate(20, 140)" class="sublabel" font-size="11">                            
  <text x="0" y="0">Light bg: #1f2937 (charcoal)</text>                                         
  <text x="0" y="18">Dark bg: #f9fafb (white)</text>                                            
  <text x="200" y="0">Glow light: #00a86b @ 30%</text>                                          
  <text x="200" y="18">Glow dark: #10b981 @ 40%</text>                                          
  </g>                                                                                          
  </g>      

  <!-- Specs box -->
  <g transform="translate(400, 990)">
    <rect x="0" y="0" width="340" height="180" rx="8" fill="white" stroke="#e5e7eb" stroke-width="1"/>
    <rect x="0" y="0" width="340" height="4" rx="2" fill="#00a86b"/>

    <text x="20" y="35" class="section-label">STACKED SPECS</text>

    <g transform="translate(20, 55)" class="sublabel" font-size="12">
      <text x="0" y="0" font-weight="500" fill="#1f2937">Icon size:</text>
      <text x="100" y="0">48×57px</text>

      <text x="0" y="22" font-weight="500" fill="#1f2937">Icon-text gap:</text>
      <text x="100" y="22">16px</text>

      <text x="0" y="44" font-weight="500" fill="#1f2937">Text size:</text>
      <text x="100" y="44">28px</text>

      <text x="0" y="66" font-weight="500" fill="#1f2937">Line height:</text>
      <text x="100" y="66">35px (1.25em)</text>

      <text x="0" y="88" font-weight="500" fill="#1f2937">Min height:</text>
      <text x="100" y="88">160px</text>
    </g>
  </g>

  <!-- Use cases -->
  <g transform="translate(780, 990)">
    <rect x="0" y="0" width="340" height="180" rx="8" fill="#f1f5f9" stroke="#e5e7eb" stroke-width="1"/>

    <text x="20" y="35" class="section-label">USE CASES</text>

    <g transform="translate(20, 55)" class="sublabel" font-size="12">
      <text x="0" y="0" font-weight="500" fill="#1f2937">Horizontal:</text>
      <text x="0" y="18">Website headers, business cards,</text>
      <text x="0" y="34">email signatures, wide formats</text>

      <text x="0" y="66" font-weight="500" fill="#1f2937">Stacked:</text>
      <text x="0" y="84">Social avatars, app icons,</text>
      <text x="0" y="100">square formats, vertical layouts</text>
    </g>
  </g>

  <!-- ========================================== -->
  <!-- SECTION 4: COLOR VARIANTS -->
  <!-- ========================================== -->
  <text x="60" y="1320" class="section-label">04. COLOR VARIANTS</text>

  <!-- Light background -->
  <g transform="translate(60, 1360)">
    <rect x="0" y="0" width="350" height="160" rx="8" fill="white" stroke="#e5e7eb" stroke-width="1"/>
    <text x="20" y="30" class="section-label">LIGHT BACKGROUND</text>

    <g transform="translate(70, 90)">
      <path d="M0 -20 L9 -11 H-9 Z" fill="url(#tip-gradient)"/>
      <line x1="-18" y1="-9" x2="18" y2="-9" stroke="#1f2937" stroke-width="2" stroke-dasharray="4 3"/>
      <line x1="-18" y1="-7.5" x2="18" y2="-7.5" stroke="#00a86b" stroke-width="1" stroke-opacity="0.3"/>
      <path d="M-18 -7 L0 22 L18 -7 H-18 Z" fill="url(#body-gradient)"/>
    </g>

    <text x="120" y="95" class="brand-text" font-size="24">
      <tspan class="jade">Builds</tspan><tspan class="charcoal"> That Last</tspan>
    </text>
  </g>

  <!-- Dark background -->
  <g transform="translate(440, 1360)">
    <rect x="0" y="0" width="350" height="160" rx="8" fill="#1f2937"/>
    <text x="20" y="30" class="section-label" fill="#6b7280">DARK BACKGROUND</text>

    <g transform="translate(70, 90)">
      <!-- Dark variant colors -->
      <path d="M0 -20 L9 -11 H-9 Z" fill="#34d399"/>
      <line x1="-18" y1="-9" x2="18" y2="-9" stroke="#f9fafb" stroke-width="2" stroke-dasharray="4 3"/>
      <line x1="-18" y1="-7.5" x2="18" y2="-7.5" stroke="#10b981" stroke-width="1" stroke-opacity="0.4"/>
      <path d="M-18 -7 L0 22 L18 -7 H-18 Z" fill="#10b981"/>
    </g>

    <text x="120" y="95" class="brand-text" font-size="24">
      <tspan fill="#34d399">Builds</tspan><tspan fill="#f9fafb"> That Last</tspan>
    </text>
  </g>

  <!-- Brand background -->
  <g transform="translate(820, 1360)">
    <rect x="0" y="0" width="350" height="160" rx="8" fill="#00a86b"/>
    <text x="20" y="30" class="section-label" fill="rgba(255,255,255,0.6)">BRAND BACKGROUND</text>

    <g transform="translate(70, 90)">
      <path d="M0 -20 L9 -11 H-9 Z" fill="white"/>
      <line x1="-18" y1="-9" x2="18" y2="-9" stroke="white" stroke-width="2" stroke-dasharray="4 3"/>
      <line x1="-18" y1="-7.5" x2="18" y2="-7.5" stroke="white" stroke-width="1" stroke-opacity="0.3"/>
      <path d="M-18 -7 L0 22 L18 -7 H-18 Z" fill="white" fill-opacity="0.7"/>
    </g>

    <text x="120" y="95" class="brand-text" font-size="24" fill="white">Builds That Last</text>
  </g>

  <!-- ========================================== -->
  <!-- SECTION 5: MINIMUM SIZES -->
  <!-- ========================================== -->
  <text x="60" y="1580" class="section-label">05. MINIMUM SIZES</text>

  <g transform="translate(60, 1620)">
    <rect x="0" y="0" width="1100" height="140" rx="8" fill="white" stroke="#e5e7eb" stroke-width="1"/>
    <rect x="0" y="0" width="1100" height="4" rx="2" fill="#00a86b"/>

    <!-- 16px favicon -->
    <g transform="translate(60, 70)">
      <rect x="-25" y="-25" width="50" height="50" fill="#f9fafb" stroke="#e5e7eb" rx="4"/>
      <!-- Simplified mark (no waterline) -->
      <path d="M0 -8 L4 -4 H-4 Z" fill="#00a86b"/>
      <path d="M-6 -3 L0 8 L6 -3 H-6 Z" fill="#065f46"/>
      <text x="0" y="40" class="dim-text" text-anchor="middle">16px</text>
      <text x="0" y="52" class="sublabel" font-size="10" text-anchor="middle">Favicon</text>
    </g>

    <!-- 24px small -->
    <g transform="translate(160, 70)">
      <rect x="-30" y="-30" width="60" height="60" fill="#f9fafb" stroke="#e5e7eb" rx="4"/>
      <g transform="scale(0.5)">
        <path d="M0 -18 L8 -10 H-8 Z" fill="url(#tip-gradient)"/>
        <line x1="-16" y1="-8" x2="16" y2="-8" stroke="#1f2937" stroke-width="2" stroke-dasharray="4 3"/>
        <path d="M-16 -6 L0 20 L16 -6 H-16 Z" fill="url(#body-gradient)"/>
      </g>
      <text x="0" y="45" class="dim-text" text-anchor="middle">24px</text>
      <text x="0" y="57" class="sublabel" font-size="10" text-anchor="middle">Small</text>
    </g>

    <!-- 48px standard -->
    <g transform="translate(280, 70)">
      <rect x="-35" y="-35" width="70" height="70" fill="#f9fafb" stroke="#e5e7eb" rx="4"/>
      <path d="M0 -18 L8 -10 H-8 Z" fill="url(#tip-gradient)"/>
      <line x1="-16" y1="-8" x2="16" y2="-8" stroke="#1f2937" stroke-width="2" stroke-dasharray="4 3"/>
      <line x1="-16" y1="-7" x2="16" y2="-7" stroke="#00a86b" stroke-width="1" stroke-opacity="0.3"/>
      <path d="M-16 -6 L0 20 L16 -6 H-16 Z" fill="url(#body-gradient)"/>
      <text x="0" y="50" class="dim-text" text-anchor="middle">48px</text>
      <text x="0" y="62" class="sublabel" font-size="10" text-anchor="middle">Standard (1x)</text>
    </g>

    <!-- 200px horizontal lockup minimum -->
    <g transform="translate(550, 70)">
      <rect x="-100" y="-30" width="200" height="60" fill="#f9fafb" stroke="#e5e7eb" rx="4"/>
      <g transform="translate(-70, 0) scale(0.6)">
        <path d="M0 -18 L8 -10 H-8 Z" fill="url(#tip-gradient)"/>
        <line x1="-16" y1="-8" x2="16" y2="-8" stroke="#1f2937" stroke-width="2" stroke-dasharray="4 3"/>
        <path d="M-16 -6 L0 20 L16 -6 H-16 Z" fill="url(#body-gradient)"/>
      </g>
      <text x="-30" y="5" class="brand-text" font-size="14">
        <tspan class="jade">Builds</tspan><tspan class="charcoal"> That Last</tspan>
      </text>
      <text x="0" y="50" class="dim-text" text-anchor="middle">200px min</text>
      <text x="0" y="62" class="sublabel" font-size="10" text-anchor="middle">Horizontal</text>
    </g>

    <!-- 80px stacked minimum -->
    <g transform="translate(800, 70)">
      <rect x="-45" y="-45" width="90" height="90" fill="#f9fafb" stroke="#e5e7eb" rx="4"/>
      <g transform="translate(0, -18) scale(0.4)">
        <path d="M0 -18 L8 -10 H-8 Z" fill="url(#tip-gradient)"/>
        <line x1="-16" y1="-8" x2="16" y2="-8" stroke="#1f2937" stroke-width="2" stroke-dasharray="4 3"/>
        <path d="M-16 -6 L0 20 L16 -6 H-16 Z" fill="url(#body-gradient)"/>
      </g>
      <text x="0" y="8" class="brand-text jade" font-size="8" text-anchor="middle">Builds</text>
      <text x="0" y="18" class="brand-text charcoal" font-size="8" text-anchor="middle">That Last</text>
      <text x="0" y="55" class="dim-text" text-anchor="middle">80px min</text>
      <text x="0" y="67" class="sublabel" font-size="10" text-anchor="middle">Stacked</text>
    </g>

    <!-- Clear space note -->
    <g transform="translate(950, 40)">
      <text x="0" y="0" class="sublabel" font-size="12" font-weight="500" fill="#1f2937">Clear Space</text>
      <text x="0" y="18" class="sublabel" font-size="11">16.5% per side (~8px at 48px)</text>
      <text x="0" y="34" class="sublabel" font-size="11">(matches icon H-padding)</text>
    </g>
  </g>

  <!-- ========================================== -->
  <!-- SECTION 6: TYPOGRAPHY SPEC -->
  <!-- ========================================== -->
  <text x="60" y="1820" class="section-label">06. WORDMARK TYPOGRAPHY</text>

  <g transform="translate(60, 1860)">
    <rect x="0" y="0" width="500" height="120" rx="8" fill="white" stroke="#e5e7eb" stroke-width="1"/>
    <rect x="0" y="0" width="500" height="4" rx="2" fill="#00a86b"/>

    <g transform="translate(20, 35)" class="sublabel" font-size="13">
      <text x="0" y="0" font-weight="600" fill="#1f2937">Font:</text>
      <text x="80" y="0">IBM Plex Sans</text>

      <text x="0" y="24" font-weight="600" fill="#1f2937">Weight:</text>
      <text x="80" y="24">700 (Bold)</text>

      <text x="0" y="48" font-weight="600" fill="#1f2937">Tracking:</text>
      <text x="80" y="48">+0.02em</text>

      <text x="250" y="0" font-weight="600" fill="#1f2937">Light bg:</text>
      <text x="330" y="0">"Builds" #00a86b</text>

      <text x="250" y="24" font-weight="600" fill="#1f2937"></text>
      <text x="330" y="24">"That Last" #1f2937</text>

      <text x="250" y="48" font-weight="600" fill="#1f2937">Dark bg:</text>
      <text x="330" y="48">"Builds" #34d399</text>

      <text x="250" y="72" font-weight="600" fill="#1f2937"></text>
      <text x="330" y="72">"That Last" #f9fafb</text>
    </g>
  </g>

  <!-- Footer -->
  <line x1="60" y1="1970" x2="1540" y2="1970" stroke="#e5e7eb" stroke-width="1"/>
  <text x="60" y="1990" class="sublabel" font-size="11" fill="#9ca3af">Builds That Last · Logo Construction v5.0 · 2026-01-13</text>
  <text x="1540" y="1990" class="sublabel" font-size="11" fill="#9ca3af" text-anchor="end">See logo.md for complete specifications</text>

</svg>
