<svg xmlns="http://www.w3.org/2000/svg" viewBox="0 0 800 700" width="800" height="700">
  <defs>
    <!-- Gradient for header -->
    <linearGradient id="headerGradient" x1="0%" y1="0%" x2="100%" y2="100%">
      <stop offset="0%" stop-color="#dc2626"/>
      <stop offset="50%" stop-color="#b91c1c"/>
      <stop offset="100%" stop-color="#991b1b"/>
    </linearGradient>

    <!-- Gold accent gradient -->
    <linearGradient id="goldGradient" x1="0%" y1="0%" x2="100%" y2="0%">
      <stop offset="0%" stop-color="#fbbf24"/>
      <stop offset="50%" stop-color="#f59e0b"/>
      <stop offset="100%" stop-color="#d97706"/>
    </linearGradient>

    <!-- Weekend days gradient -->
    <linearGradient id="weekendGradient" x1="0%" y1="0%" x2="0%" y2="100%">
      <stop offset="0%" stop-color="#fef3c7"/>
      <stop offset="100%" stop-color="#fde68a"/>
    </linearGradient>

    <!-- Official holiday gradient -->
    <linearGradient id="holidayGradient" x1="0%" y1="0%" x2="0%" y2="100%">
      <stop offset="0%" stop-color="#fee2e2"/>
      <stop offset="100%" stop-color="#fecaca"/>
    </linearGradient>

    <!-- Peach blossom gradient -->
    <radialGradient id="peachGradient" cx="50%" cy="50%" r="50%">
      <stop offset="0%" stop-color="#fda4af"/>
      <stop offset="100%" stop-color="#e11d48"/>
    </radialGradient>

    <!-- Mai flower gradient -->
    <radialGradient id="maiGradient" cx="50%" cy="50%" r="50%">
      <stop offset="0%" stop-color="#fef08a"/>
      <stop offset="100%" stop-color="#eab308"/>
    </radialGradient>

    <!-- Lantern glow -->
    <filter id="lanternGlow" x="-50%" y="-50%" width="200%" height="200%">
      <feGaussianBlur stdDeviation="3" result="coloredBlur"/>
      <feMerge>
        <feMergeNode in="coloredBlur"/>
        <feMergeNode in="SourceGraphic"/>
      </feMerge>
    </filter>
  </defs>

  <!-- Background with subtle pattern -->
  <rect width="800" height="700" fill="#fffbeb"/>

  <!-- Decorative corner patterns -->
  <g opacity="0.15">
    <!-- Top left corner decoration -->
    <path d="M0,0 Q40,40 0,80 Q40,40 80,0 Z" fill="#dc2626"/>
    <path d="M0,80 Q30,100 0,140 Q30,100 60,80 Z" fill="#f59e0b"/>

    <!-- Top right corner decoration -->
    <path d="M800,0 Q760,40 800,80 Q760,40 720,0 Z" fill="#dc2626"/>
    <path d="M800,80 Q770,100 800,140 Q770,100 740,80 Z" fill="#f59e0b"/>

    <!-- Bottom decorative wave -->
    <path d="M0,680 Q100,660 200,680 Q300,700 400,680 Q500,660 600,680 Q700,700 800,680 L800,700 L0,700 Z" fill="#dc2626"/>
  </g>

  <!-- Header section -->
  <rect x="0" y="0" width="800" height="130" fill="url(#headerGradient)"/>

  <!-- Gold decorative line with pattern -->
  <rect x="0" y="128" width="800" height="6" fill="url(#goldGradient)"/>
  <g fill="#fbbf24" opacity="0.3">
    <circle cx="50" cy="131" r="8"/>
    <circle cx="150" cy="131" r="8"/>
    <circle cx="250" cy="131" r="8"/>
    <circle cx="350" cy="131" r="8"/>
    <circle cx="450" cy="131" r="8"/>
    <circle cx="550" cy="131" r="8"/>
    <circle cx="650" cy="131" r="8"/>
    <circle cx="750" cy="131" r="8"/>
  </g>

  <!-- Left Lantern -->
  <g transform="translate(45, 25)" filter="url(#lanternGlow)">
    <ellipse cx="30" cy="45" rx="22" ry="28" fill="#dc2626" stroke="#fbbf24" stroke-width="2"/>
    <rect x="20" y="12" width="20" height="8" rx="2" fill="#fbbf24"/>
    <line x1="30" y1="0" x2="30" y2="12" stroke="#fbbf24" stroke-width="2"/>
    <ellipse cx="30" cy="45" rx="15" ry="20" fill="#ef4444" opacity="0.5"/>
    <text x="30" y="52" font-family="serif" font-size="18" font-weight="700" fill="#fbbf24" text-anchor="middle">福</text>
    <path d="M20,73 Q30,85 40,73" stroke="#fbbf24" stroke-width="2" fill="none"/>
    <line x1="22" y1="75" x2="22" y2="88" stroke="#fbbf24" stroke-width="1"/>
    <line x1="30" y1="80" x2="30" y2="95" stroke="#fbbf24" stroke-width="1"/>
    <line x1="38" y1="75" x2="38" y2="88" stroke="#fbbf24" stroke-width="1"/>
  </g>

  <!-- Right Lantern -->
  <g transform="translate(725, 25)" filter="url(#lanternGlow)">
    <ellipse cx="30" cy="45" rx="22" ry="28" fill="#dc2626" stroke="#fbbf24" stroke-width="2"/>
    <rect x="20" y="12" width="20" height="8" rx="2" fill="#fbbf24"/>
    <line x1="30" y1="0" x2="30" y2="12" stroke="#fbbf24" stroke-width="2"/>
    <ellipse cx="30" cy="45" rx="15" ry="20" fill="#ef4444" opacity="0.5"/>
    <text x="30" y="52" font-family="serif" font-size="18" font-weight="700" fill="#fbbf24" text-anchor="middle">禄</text>
    <path d="M20,73 Q30,85 40,73" stroke="#fbbf24" stroke-width="2" fill="none"/>
    <line x1="22" y1="75" x2="22" y2="88" stroke="#fbbf24" stroke-width="1"/>
    <line x1="30" y1="80" x2="30" y2="95" stroke="#fbbf24" stroke-width="1"/>
    <line x1="38" y1="75" x2="38" y2="88" stroke="#fbbf24" stroke-width="1"/>
  </g>

  <!-- Title -->
  <text x="400" y="50" font-family="Inter, system-ui, sans-serif" font-size="26" font-weight="700" fill="#ffffff" text-anchor="middle">THONG BAO LICH NGHI</text>
  <text x="400" y="90" font-family="Inter, system-ui, sans-serif" font-size="34" font-weight="800" fill="#fbbf24" text-anchor="middle">TET NGUYEN DAN 2026</text>
  <text x="400" y="118" font-family="Inter, system-ui, sans-serif" font-size="16" font-weight="500" fill="#fef3c7" text-anchor="middle">Nam At Ty - Binh Ngo</text>

  <!-- Mai flowers (left side) -->
  <g transform="translate(20, 150)">
    <!-- Branch -->
    <path d="M0,120 Q30,80 25,40 Q35,60 50,30 Q40,70 60,50" stroke="#92400e" stroke-width="3" fill="none"/>
    <!-- Mai flowers -->
    <g transform="translate(25, 35)">
      <circle cx="0" cy="0" r="12" fill="url(#maiGradient)"/>
      <circle cx="0" cy="-10" r="5" fill="#fef08a"/>
      <circle cx="9" cy="-3" r="5" fill="#fef08a"/>
      <circle cx="6" cy="8" r="5" fill="#fef08a"/>
      <circle cx="-6" cy="8" r="5" fill="#fef08a"/>
      <circle cx="-9" cy="-3" r="5" fill="#fef08a"/>
      <circle cx="0" cy="0" r="4" fill="#f59e0b"/>
    </g>
    <g transform="translate(50, 25)">
      <circle cx="0" cy="0" r="10" fill="url(#maiGradient)"/>
      <circle cx="0" cy="-8" r="4" fill="#fef08a"/>
      <circle cx="7" cy="-2" r="4" fill="#fef08a"/>
      <circle cx="5" cy="6" r="4" fill="#fef08a"/>
      <circle cx="-5" cy="6" r="4" fill="#fef08a"/>
      <circle cx="-7" cy="-2" r="4" fill="#fef08a"/>
      <circle cx="0" cy="0" r="3" fill="#f59e0b"/>
    </g>
    <g transform="translate(60, 50)">
      <circle cx="0" cy="0" r="8" fill="url(#maiGradient)"/>
      <circle cx="0" cy="-6" r="3" fill="#fef08a"/>
      <circle cx="5" cy="-2" r="3" fill="#fef08a"/>
      <circle cx="4" cy="5" r="3" fill="#fef08a"/>
      <circle cx="-4" cy="5" r="3" fill="#fef08a"/>
      <circle cx="-5" cy="-2" r="3" fill="#fef08a"/>
      <circle cx="0" cy="0" r="2" fill="#f59e0b"/>
    </g>
    <!-- Buds -->
    <ellipse cx="35" cy="55" rx="3" ry="5" fill="#eab308"/>
    <ellipse cx="15" cy="70" rx="2" ry="4" fill="#eab308"/>
  </g>

  <!-- Peach blossoms (right side) -->
  <g transform="translate(710, 150)">
    <!-- Branch -->
    <path d="M80,120 Q50,80 55,40 Q45,60 30,30 Q40,70 20,50" stroke="#92400e" stroke-width="3" fill="none"/>
    <!-- Peach flowers -->
    <g transform="translate(55, 35)">
      <circle cx="0" cy="0" r="12" fill="url(#peachGradient)"/>
      <circle cx="0" cy="-10" r="5" fill="#fda4af"/>
      <circle cx="9" cy="-3" r="5" fill="#fda4af"/>
      <circle cx="6" cy="8" r="5" fill="#fda4af"/>
      <circle cx="-6" cy="8" r="5" fill="#fda4af"/>
      <circle cx="-9" cy="-3" r="5" fill="#fda4af"/>
      <circle cx="0" cy="0" r="4" fill="#fecdd3"/>
    </g>
    <g transform="translate(30, 25)">
      <circle cx="0" cy="0" r="10" fill="url(#peachGradient)"/>
      <circle cx="0" cy="-8" r="4" fill="#fda4af"/>
      <circle cx="7" cy="-2" r="4" fill="#fda4af"/>
      <circle cx="5" cy="6" r="4" fill="#fda4af"/>
      <circle cx="-5" cy="6" r="4" fill="#fda4af"/>
      <circle cx="-7" cy="-2" r="4" fill="#fda4af"/>
      <circle cx="0" cy="0" r="3" fill="#fecdd3"/>
    </g>
    <g transform="translate(20, 50)">
      <circle cx="0" cy="0" r="8" fill="url(#peachGradient)"/>
      <circle cx="0" cy="-6" r="3" fill="#fda4af"/>
      <circle cx="5" cy="-2" r="3" fill="#fda4af"/>
      <circle cx="4" cy="5" r="3" fill="#fda4af"/>
      <circle cx="-4" cy="5" r="3" fill="#fda4af"/>
      <circle cx="-5" cy="-2" r="3" fill="#fda4af"/>
      <circle cx="0" cy="0" r="2" fill="#fecdd3"/>
    </g>
    <!-- Buds -->
    <ellipse cx="45" cy="55" rx="3" ry="5" fill="#e11d48"/>
    <ellipse cx="65" cy="70" rx="2" ry="4" fill="#e11d48"/>
  </g>

  <!-- Calendar section -->
  <rect x="90" y="155" width="620" height="280" rx="12" fill="#ffffff" stroke="#e5e7eb" stroke-width="2"/>

  <!-- Calendar header -->
  <rect x="90" y="155" width="620" height="45" rx="12" fill="#1f2937"/>
  <rect x="90" y="185" width="620" height="15" fill="#1f2937"/>

  <text x="400" y="185" font-family="Inter, system-ui, sans-serif" font-size="16" font-weight="700" fill="#ffffff" text-anchor="middle">THANG 2/2026  -  9 NGAY NGHI LIEN TUC</text>

  <!-- Day headers -->
  <g font-family="Inter, system-ui, sans-serif" font-size="11" font-weight="600" fill="#6b7280" text-anchor="middle">
    <text x="150" y="220">T.BAY</text>
    <text x="225" y="220">C.NHAT</text>
    <text x="300" y="220">T.HAI</text>
    <text x="375" y="220">T.BA</text>
    <text x="450" y="220">T.TU</text>
    <text x="525" y="220">T.NAM</text>
    <text x="600" y="220">T.SAU</text>
    <text x="675" y="220">T.BAY</text>
  </g>

  <!-- Calendar days row 1 -->
  <g>
    <!-- Sat 14 - Weekend before -->
    <rect x="115" y="235" width="65" height="75" rx="8" fill="url(#weekendGradient)" stroke="#f59e0b" stroke-width="2"/>
    <text x="147" y="262" font-family="Inter, system-ui, sans-serif" font-size="22" font-weight="700" fill="#92400e" text-anchor="middle">14</text>
    <text x="147" y="280" font-family="Inter, system-ui, sans-serif" font-size="9" fill="#78350f" text-anchor="middle">27/12</text>
    <text x="147" y="300" font-family="Inter, system-ui, sans-serif" font-size="8" font-weight="600" fill="#b45309" text-anchor="middle">CUOI TUAN</text>

    <!-- Sun 15 - Weekend before -->
    <rect x="190" y="235" width="65" height="75" rx="8" fill="url(#weekendGradient)" stroke="#f59e0b" stroke-width="2"/>
    <text x="222" y="262" font-family="Inter, system-ui, sans-serif" font-size="22" font-weight="700" fill="#92400e" text-anchor="middle">15</text>
    <text x="222" y="280" font-family="Inter, system-ui, sans-serif" font-size="9" fill="#78350f" text-anchor="middle">28/12</text>
    <text x="222" y="300" font-family="Inter, system-ui, sans-serif" font-size="8" font-weight="600" fill="#b45309" text-anchor="middle">CUOI TUAN</text>

    <!-- Mon 16 - Official holiday start (29/12 = Giao thua) -->
    <rect x="265" y="235" width="65" height="75" rx="8" fill="url(#holidayGradient)" stroke="#dc2626" stroke-width="3"/>
    <text x="297" y="262" font-family="Inter, system-ui, sans-serif" font-size="22" font-weight="700" fill="#b91c1c" text-anchor="middle">16</text>
    <text x="297" y="280" font-family="Inter, system-ui, sans-serif" font-size="9" fill="#991b1b" text-anchor="middle">29/12</text>
    <text x="297" y="300" font-family="Inter, system-ui, sans-serif" font-size="8" font-weight="700" fill="#dc2626" text-anchor="middle">GIAO THUA</text>

    <!-- Tue 17 - Mung 1 -->
    <rect x="340" y="235" width="65" height="75" rx="8" fill="#dc2626" stroke="#991b1b" stroke-width="3"/>
    <text x="372" y="262" font-family="Inter, system-ui, sans-serif" font-size="22" font-weight="800" fill="#ffffff" text-anchor="middle">17</text>
    <text x="372" y="280" font-family="Inter, system-ui, sans-serif" font-size="9" fill="#fef2f2" text-anchor="middle">MUNG 1</text>
    <text x="372" y="300" font-family="Inter, system-ui, sans-serif" font-size="9" font-weight="700" fill="#fbbf24" text-anchor="middle">TET</text>

    <!-- Wed 18 - Mung 2 -->
    <rect x="415" y="235" width="65" height="75" rx="8" fill="url(#holidayGradient)" stroke="#dc2626" stroke-width="3"/>
    <text x="447" y="262" font-family="Inter, system-ui, sans-serif" font-size="22" font-weight="700" fill="#b91c1c" text-anchor="middle">18</text>
    <text x="447" y="280" font-family="Inter, system-ui, sans-serif" font-size="9" fill="#991b1b" text-anchor="middle">Mung 2</text>
    <text x="447" y="300" font-family="Inter, system-ui, sans-serif" font-size="8" font-weight="700" fill="#dc2626" text-anchor="middle">NGHI TET</text>

    <!-- Thu 19 - Mung 3 -->
    <rect x="490" y="235" width="65" height="75" rx="8" fill="url(#holidayGradient)" stroke="#dc2626" stroke-width="3"/>
    <text x="522" y="262" font-family="Inter, system-ui, sans-serif" font-size="22" font-weight="700" fill="#b91c1c" text-anchor="middle">19</text>
    <text x="522" y="280" font-family="Inter, system-ui, sans-serif" font-size="9" fill="#991b1b" text-anchor="middle">Mung 3</text>
    <text x="522" y="300" font-family="Inter, system-ui, sans-serif" font-size="8" font-weight="700" fill="#dc2626" text-anchor="middle">NGHI TET</text>

    <!-- Fri 20 - Mung 4 (last official day) -->
    <rect x="565" y="235" width="65" height="75" rx="8" fill="url(#holidayGradient)" stroke="#dc2626" stroke-width="3"/>
    <text x="597" y="262" font-family="Inter, system-ui, sans-serif" font-size="22" font-weight="700" fill="#b91c1c" text-anchor="middle">20</text>
    <text x="597" y="280" font-family="Inter, system-ui, sans-serif" font-size="9" fill="#991b1b" text-anchor="middle">Mung 4</text>
    <text x="597" y="300" font-family="Inter, system-ui, sans-serif" font-size="8" font-weight="700" fill="#dc2626" text-anchor="middle">NGHI TET</text>

    <!-- Sat 21 - Weekend after -->
    <rect x="640" y="235" width="65" height="75" rx="8" fill="url(#weekendGradient)" stroke="#f59e0b" stroke-width="2"/>
    <text x="672" y="262" font-family="Inter, system-ui, sans-serif" font-size="22" font-weight="700" fill="#92400e" text-anchor="middle">21</text>
    <text x="672" y="280" font-family="Inter, system-ui, sans-serif" font-size="9" fill="#78350f" text-anchor="middle">Mung 5</text>
    <text x="672" y="300" font-family="Inter, system-ui, sans-serif" font-size="8" font-weight="600" fill="#b45309" text-anchor="middle">CUOI TUAN</text>
  </g>

  <!-- Second row -->
  <g>
    <!-- Sun 22 - Weekend after -->
    <rect x="115" y="320" width="65" height="75" rx="8" fill="url(#weekendGradient)" stroke="#f59e0b" stroke-width="2"/>
    <text x="147" y="347" font-family="Inter, system-ui, sans-serif" font-size="22" font-weight="700" fill="#92400e" text-anchor="middle">22</text>
    <text x="147" y="365" font-family="Inter, system-ui, sans-serif" font-size="9" fill="#78350f" text-anchor="middle">Mung 6</text>
    <text x="147" y="385" font-family="Inter, system-ui, sans-serif" font-size="8" font-weight="600" fill="#b45309" text-anchor="middle">CUOI TUAN</text>

    <!-- Mon 23 - Back to work -->
    <rect x="190" y="320" width="65" height="75" rx="8" fill="#d1fae5" stroke="#10b981" stroke-width="3"/>
    <text x="222" y="347" font-family="Inter, system-ui, sans-serif" font-size="22" font-weight="700" fill="#047857" text-anchor="middle">23</text>
    <text x="222" y="365" font-family="Inter, system-ui, sans-serif" font-size="9" fill="#065f46" text-anchor="middle">Mung 7</text>
    <text x="222" y="385" font-family="Inter, system-ui, sans-serif" font-size="8" font-weight="700" fill="#10b981" text-anchor="middle">DI LAM</text>
  </g>

  <!-- Legend -->
  <g transform="translate(90, 450)">
    <rect x="0" y="0" width="620" height="55" rx="8" fill="#f9fafb" stroke="#e5e7eb" stroke-width="1"/>

    <!-- Official holiday legend -->
    <rect x="20" y="18" width="18" height="18" rx="4" fill="#fecaca" stroke="#dc2626" stroke-width="2"/>
    <text x="45" y="32" font-family="Inter, system-ui, sans-serif" font-size="11" fill="#1f2937">Nghi Tet (5 ngay theo quy dinh)</text>

    <!-- Weekend legend -->
    <rect x="230" y="18" width="18" height="18" rx="4" fill="#fde68a" stroke="#f59e0b" stroke-width="2"/>
    <text x="255" y="32" font-family="Inter, system-ui, sans-serif" font-size="11" fill="#1f2937">Cuoi tuan (4 ngay lien ke)</text>

    <!-- Total days -->
    <rect x="440" y="12" width="160" height="30" rx="6" fill="#dc2626"/>
    <text x="520" y="33" font-family="Inter, system-ui, sans-serif" font-size="13" font-weight="700" fill="#ffffff" text-anchor="middle">TONG: 9 NGAY NGHI</text>
  </g>

  <!-- Back to work announcement -->
  <rect x="90" y="520" width="620" height="70" rx="10" fill="#ecfdf5" stroke="#10b981" stroke-width="2"/>
  <g>
    <text x="115" y="550" font-size="24">🏢</text>
    <text x="150" y="552" font-family="Inter, system-ui, sans-serif" font-size="14" font-weight="700" fill="#047857">CONG TY MO CUA TRO LAI</text>
    <text x="150" y="575" font-family="Inter, system-ui, sans-serif" font-size="13" fill="#065f46">Thu Hai, ngay 23/02/2026 (Mung 7 thang Gieng nam Binh Ngo)</text>
  </g>

  <!-- Banh chung icon -->
  <g transform="translate(620, 530)">
    <rect x="0" y="0" width="45" height="45" rx="4" fill="#16a34a" stroke="#166534" stroke-width="2"/>
    <line x1="0" y1="22" x2="45" y2="22" stroke="#15803d" stroke-width="2"/>
    <line x1="22" y1="0" x2="22" y2="45" stroke="#15803d" stroke-width="2"/>
    <rect x="15" y="15" width="15" height="15" fill="#fbbf24" opacity="0.7"/>
  </g>

  <!-- Date range summary -->
  <rect x="150" y="610" width="500" height="40" rx="8" fill="#1f2937"/>
  <text x="400" y="636" font-family="Inter, system-ui, sans-serif" font-size="14" font-weight="600" fill="#ffffff" text-anchor="middle">Nghi tu 14/02 (Thu Bay) den het 22/02/2026 (Chu Nhat)</text>

  <!-- Decorative firecrackers (bottom left) -->
  <g transform="translate(30, 600)" opacity="0.8">
    <rect x="0" y="0" width="8" height="25" rx="2" fill="#dc2626"/>
    <rect x="12" y="5" width="8" height="25" rx="2" fill="#dc2626"/>
    <rect x="24" y="2" width="8" height="25" rx="2" fill="#dc2626"/>
    <line x1="4" y1="0" x2="4" y2="-8" stroke="#f59e0b" stroke-width="1"/>
    <line x1="16" y1="5" x2="16" y2="-3" stroke="#f59e0b" stroke-width="1"/>
    <line x1="28" y1="2" x2="28" y2="-6" stroke="#f59e0b" stroke-width="1"/>
    <circle cx="4" cy="-10" r="3" fill="#fbbf24"/>
    <circle cx="16" cy="-5" r="3" fill="#fbbf24"/>
    <circle cx="28" cy="-8" r="3" fill="#fbbf24"/>
  </g>

  <!-- Decorative firecrackers (bottom right) -->
  <g transform="translate(740, 600)" opacity="0.8">
    <rect x="0" y="0" width="8" height="25" rx="2" fill="#dc2626"/>
    <rect x="12" y="5" width="8" height="25" rx="2" fill="#dc2626"/>
    <rect x="24" y="2" width="8" height="25" rx="2" fill="#dc2626"/>
    <line x1="4" y1="0" x2="4" y2="-8" stroke="#f59e0b" stroke-width="1"/>
    <line x1="16" y1="5" x2="16" y2="-3" stroke="#f59e0b" stroke-width="1"/>
    <line x1="28" y1="2" x2="28" y2="-6" stroke="#f59e0b" stroke-width="1"/>
    <circle cx="4" cy="-10" r="3" fill="#fbbf24"/>
    <circle cx="16" cy="-5" r="3" fill="#fbbf24"/>
    <circle cx="28" cy="-8" r="3" fill="#fbbf24"/>
  </g>

  <!-- Lucky money envelopes decoration -->
  <g transform="translate(680, 610)" opacity="0.9">
    <rect x="0" y="0" width="30" height="40" rx="3" fill="#dc2626"/>
    <rect x="0" y="0" width="30" height="12" rx="3" fill="#b91c1c"/>
    <circle cx="15" cy="25" r="8" fill="#fbbf24"/>
    <text x="15" y="29" font-family="serif" font-size="10" font-weight="700" fill="#dc2626" text-anchor="middle">福</text>
  </g>

  <!-- Kumquat decoration -->
  <g transform="translate(85, 610)" opacity="0.9">
    <circle cx="10" cy="15" r="8" fill="#f59e0b"/>
    <circle cx="25" cy="10" r="6" fill="#fbbf24"/>
    <circle cx="18" cy="25" r="7" fill="#f59e0b"/>
    <ellipse cx="15" cy="5" rx="8" ry="3" fill="#22c55e"/>
    <ellipse cx="28" cy="3" rx="5" ry="2" fill="#22c55e"/>
  </g>

  <!-- Wishes text -->
  <text x="400" y="680" font-family="Inter, system-ui, sans-serif" font-size="13" font-weight="600" fill="#dc2626" text-anchor="middle">Chuc Mung Nam Moi - An Khang Thinh Vuong</text>
</svg>